<?xml version="1.0" encoding="UTF-8"?>
<svg xmlns="http://www.w3.org/2000/svg" xmlns:xlink="http://www.w3.org/1999/xlink" viewBox="0 0 2899.99 2915.27">
  <defs>
    <style>
      .cls-1, .cls-2 {
        fill: url(#linear-gradient);
      }

      .cls-3 {
        clip-path: url(#clippath);
      }

      .cls-2, .cls-4, .cls-5, .cls-6, .cls-7, .cls-8, .cls-9, .cls-10, .cls-11, .cls-12, .cls-13, .cls-14, .cls-15, .cls-16, .cls-17, .cls-18, .cls-19, .cls-20, .cls-21, .cls-22, .cls-23, .cls-24, .cls-25, .cls-26, .cls-27, .cls-28, .cls-29, .cls-30, .cls-31, .cls-32, .cls-33, .cls-34, .cls-35, .cls-36, .cls-37, .cls-38, .cls-39, .cls-40, .cls-41, .cls-42, .cls-43, .cls-44, .cls-45, .cls-46, .cls-47, .cls-48, .cls-49, .cls-50, .cls-51, .cls-52, .cls-53, .cls-54, .cls-55, .cls-56, .cls-57, .cls-58, .cls-59, .cls-60, .cls-61, .cls-62, .cls-63, .cls-64, .cls-65, .cls-66, .cls-67, .cls-68, .cls-69, .cls-70, .cls-71, .cls-72, .cls-73, .cls-74, .cls-75, .cls-76 {
        stroke-width: 0px;
      }

      .cls-4 {
        fill: url(#linear-gradient-60);
      }

      .cls-4, .cls-5, .cls-6, .cls-64, .cls-77, .cls-78, .cls-76 {
        mix-blend-mode: multiply;
      }

      .cls-4, .cls-5, .cls-6, .cls-64, .cls-78 {
        opacity: .3;
      }

      .cls-5 {
        fill: url(#linear-gradient-20);
      }

      .cls-6 {
        fill: url(#linear-gradient-19);
      }

      .cls-7 {
        fill: url(#linear-gradient-38);
      }

      .cls-8 {
        fill: url(#linear-gradient-33);
      }

      .cls-9 {
        fill: url(#linear-gradient-29);
      }

      .cls-10 {
        fill: url(#linear-gradient-32);
      }

      .cls-11 {
        fill: url(#linear-gradient-30);
      }

      .cls-12 {
        fill: url(#linear-gradient-31);
      }

      .cls-13 {
        fill: url(#linear-gradient-36);
      }

      .cls-14 {
        fill: url(#linear-gradient-39);
      }

      .cls-15 {
        fill: url(#linear-gradient-34);
      }

      .cls-16 {
        fill: url(#linear-gradient-37);
      }

      .cls-17 {
        fill: url(#linear-gradient-35);
      }

      .cls-18 {
        fill: url(#linear-gradient-28);
      }

      .cls-19 {
        fill: url(#linear-gradient-25);
      }

      .cls-20 {
        fill: url(#linear-gradient-11);
      }

      .cls-21 {
        fill: url(#linear-gradient-12);
      }

      .cls-22 {
        fill: url(#linear-gradient-13);
      }

      .cls-23 {
        fill: url(#linear-gradient-10);
      }

      .cls-24 {
        fill: url(#linear-gradient-17);
      }

      .cls-25 {
        fill: url(#linear-gradient-16);
      }

      .cls-26 {
        fill: url(#linear-gradient-15);
      }

      .cls-27 {
        fill: url(#linear-gradient-23);
      }

      .cls-28 {
        fill: url(#linear-gradient-21);
      }

      .cls-29 {
        fill: url(#linear-gradient-18);
      }

      .cls-30 {
        fill: url(#linear-gradient-14);
      }

      .cls-31 {
        fill: url(#linear-gradient-22);
      }

      .cls-32 {
        fill: url(#linear-gradient-27);
      }

      .cls-33 {
        fill: url(#linear-gradient-24);
      }

      .cls-34 {
        fill: url(#linear-gradient-26);
      }

      .cls-35 {
        fill: url(#linear-gradient-45);
      }

      .cls-36 {
        fill: url(#linear-gradient-46);
      }

      .cls-37 {
        fill: url(#linear-gradient-44);
      }

      .cls-38 {
        fill: url(#linear-gradient-48);
      }

      .cls-39 {
        fill: url(#linear-gradient-49);
      }

      .cls-40 {
        fill: url(#linear-gradient-47);
      }

      .cls-41 {
        fill: url(#linear-gradient-42);
      }

      .cls-42 {
        fill: url(#linear-gradient-43);
      }

      .cls-43 {
        fill: url(#linear-gradient-40);
      }

      .cls-44 {
        fill: url(#linear-gradient-41);
      }

      .cls-45 {
        fill: url(#linear-gradient-59);
      }

      .cls-46 {
        fill: url(#linear-gradient-57);
      }

      .cls-47 {
        fill: url(#linear-gradient-58);
      }

      .cls-48 {
        fill: url(#linear-gradient-55);
      }

      .cls-49 {
        fill: url(#linear-gradient-56);
      }

      .cls-50 {
        fill: url(#linear-gradient-53);
      }

      .cls-51 {
        fill: url(#linear-gradient-51);
      }

      .cls-52 {
        fill: url(#linear-gradient-52);
      }

      .cls-53 {
        fill: url(#linear-gradient-50);
      }

      .cls-54 {
        fill: url(#linear-gradient-54);
      }

      .cls-55 {
        fill: url(#linear-gradient-61);
      }

      .cls-56 {
        fill: url(#linear-gradient-62);
      }

      .cls-57 {
        fill: url(#linear-gradient-65);
      }

      .cls-58 {
        fill: url(#linear-gradient-67);
      }

      .cls-59 {
        fill: url(#linear-gradient-68);
      }

      .cls-60 {
        fill: url(#linear-gradient-66);
      }

      .cls-61 {
        fill: url(#linear-gradient-63);
      }

      .cls-62 {
        fill: url(#linear-gradient-69);
      }

      .cls-63 {
        fill: url(#linear-gradient-64);
      }

      .cls-79 {
        clip-path: url(#clippath-1);
      }

      .cls-80 {
        clip-path: url(#clippath-2);
      }

      .cls-64 {
        fill: url(#linear-gradient-9);
      }

      .cls-81 {
        fill: url(#linear-gradient-4);
      }

      .cls-82, .cls-65 {
        fill: url(#linear-gradient-2);
      }

      .cls-83 {
        mix-blend-mode: soft-light;
      }

      .cls-66 {
        fill: url(#linear-gradient-3);
      }

      .cls-67 {
        fill: url(#linear-gradient-8);
      }

      .cls-68 {
        fill: url(#linear-gradient-7);
      }

      .cls-69 {
        fill: url(#linear-gradient-5);
      }

      .cls-70 {
        fill: url(#linear-gradient-6);
      }

      .cls-84 {
        isolation: isolate;
      }

      .cls-77 {
        opacity: .15;
      }

      .cls-71 {
        fill: #26264f;
      }

      .cls-72 {
        fill: #d8dee8;
      }

      .cls-73 {
        fill: #fff;
      }

      .cls-74 {
        fill: #fcb048;
      }

      .cls-75, .cls-76 {
        fill: #f4f7fa;
      }

      .cls-76 {
        opacity: .4;
      }
    </style>
    <linearGradient id="linear-gradient" x1="1919" y1="540.51" x2="2439.79" y2="2197.57" gradientUnits="userSpaceOnUse">
      <stop offset="0" stop-color="#ff9085"/>
      <stop offset="1" stop-color="#fb6fbb"/>
    </linearGradient>
    <clipPath id="clippath">
      <path class="cls-2" d="m2219.2,2477.04c-86.65-99.34-199.68-259.15-237.28-473.74-43.18-246.42,52.55-339.87,54.04-623.42,2.13-404.77-269.26-582.51-161.33-751.61,52.64-82.46,169.35-131.88,263-111.07,267.2,59.39,480.39,720.23,259.76,1106.62-99.78,174.76-233.99,215.81-283.02,408.06-43.32,169.88,36.09,336.23,104.82,445.15Z"/>
    </clipPath>
    <linearGradient id="linear-gradient-2" x1="2860.1" y1="776.26" x2="3545.93" y2="-466.14" gradientUnits="userSpaceOnUse">
      <stop offset="0" stop-color="#e38ddd"/>
      <stop offset="1" stop-color="#9571f6"/>
    </linearGradient>
    <clipPath id="clippath-1">
      <path class="cls-65" d="m2025.36,2345.83c-45.59-72.07-104.15-189.97-86.86-324.88,30.17-235.36,257.23-257.57,363.64-541.07,85.83-228.65-16.61-334.81,109.1-515.82,21.04-30.3,130.54-194.36,268.83-181.94,77.93,7,130.41,66.84,140.26,78.07,148.89,169.79,78.55,563.99-123.77,816.26-116.24,144.94-176.06,138.95-401.01,345.8-132.18,121.55-218.79,242.69-270.2,323.59Z"/>
    </clipPath>
    <linearGradient id="linear-gradient-3" x1="-673.91" y1="596.6" x2="-1904.81" y2="1607.7" gradientTransform="translate(3460.38 940.71) rotate(-3.96)" gradientUnits="userSpaceOnUse">
      <stop offset="0" stop-color="#aa80f9"/>
      <stop offset="1" stop-color="#6165d7"/>
    </linearGradient>
    <linearGradient id="linear-gradient-4" x1="4800.99" y1="11105.22" x2="5990.31" y2="13688.08" xlink:href="#linear-gradient-2"/>
    <linearGradient id="linear-gradient-5" x1="4800.99" y1="11105.22" x2="5990.31" y2="13688.08" xlink:href="#linear-gradient-2"/>
    <clipPath id="clippath-2">
      <path class="cls-69" d="m972.7,2645.43c45.59-72.07,104.15-189.97,86.86-324.88-30.17-235.36-257.23-257.57-363.64-541.07-85.83-228.65,16.61-334.81-109.1-515.82-21.04-30.3-130.54-194.36-268.83-181.94-77.93,7-130.41,66.84-140.26,78.07-148.89,169.79-78.55,563.99,123.77,816.26,116.24,144.94,176.06,138.95,401.01,345.8,132.18,121.55,218.79,242.69,270.2,323.59Z"/>
    </clipPath>
    <linearGradient id="linear-gradient-6" x1="1832.35" y1="1070.31" x2="601.44" y2="2081.42" gradientTransform="translate(2070.34 940.71) rotate(-176.04) scale(1 -1)" xlink:href="#linear-gradient"/>
    <linearGradient id="linear-gradient-7" x1="475.3" y1="598.92" x2="1210.12" y2="566.97" gradientUnits="userSpaceOnUse">
      <stop offset="0" stop-color="#ab316d"/>
      <stop offset="1" stop-color="#792d3d"/>
    </linearGradient>
    <linearGradient id="linear-gradient-8" x1="398.49" y1="1795.56" x2="1085.75" y2="1795.56" gradientUnits="userSpaceOnUse">
      <stop offset="0" stop-color="#ffc444"/>
      <stop offset="1" stop-color="#f36f56"/>
    </linearGradient>
    <linearGradient id="linear-gradient-9" x1="584.04" y1="1795.56" x2="1085.75" y2="1795.56" xlink:href="#linear-gradient-8"/>
    <linearGradient id="linear-gradient-10" x1="1426.14" y1="1679.36" x2="2626.3" y2="3701.45" xlink:href="#linear-gradient-8"/>
    <linearGradient id="linear-gradient-11" x1="1422.64" y1="1499.9" x2="2394.24" y2="3781.68" xlink:href="#linear-gradient-8"/>
    <linearGradient id="linear-gradient-12" x1="1601.88" y1="-67.06" x2="1282.41" y2="2659.88" xlink:href="#linear-gradient-7"/>
    <linearGradient id="linear-gradient-13" x1="1770.05" y1="-173.79" x2="845.7" y2="1584.72" xlink:href="#linear-gradient-7"/>
    <linearGradient id="linear-gradient-14" x1="2352.49" y1="155.62" x2="1428.14" y2="1914.12" xlink:href="#linear-gradient-7"/>
    <linearGradient id="linear-gradient-15" x1="92.88" y1="2254.87" x2="303.55" y2="2288.73" gradientTransform="matrix(1,0,0,1,0,0)" xlink:href="#linear-gradient-3"/>
    <linearGradient id="linear-gradient-16" x1="881.14" y1="2249.53" x2="1753.92" y2="3291.6" gradientTransform="matrix(1,0,0,1,0,0)" xlink:href="#linear-gradient-3"/>
    <linearGradient id="linear-gradient-17" x1="658.97" y1="2539.97" x2="1802.61" y2="2901.12" gradientUnits="userSpaceOnUse">
      <stop offset="0" stop-color="#444b8c"/>
      <stop offset="1" stop-color="#26264f"/>
    </linearGradient>
    <linearGradient id="linear-gradient-18" x1="488.06" y1="2280.35" x2="1067.37" y2="2280.35" gradientTransform="translate(2.36 -6.86) rotate(.87)" xlink:href="#linear-gradient"/>
    <linearGradient id="linear-gradient-19" x1="850.86" y1="1743.21" x2="1723.64" y2="2785.28" gradientTransform="matrix(1,0,0,1,0,0)" xlink:href="#linear-gradient-3"/>
    <linearGradient id="linear-gradient-20" x1="1110.06" y1="2563.03" x2="1679.07" y2="2563.03" gradientTransform="matrix(1,0,0,1,0,0)" xlink:href="#linear-gradient-3"/>
    <linearGradient id="linear-gradient-21" x1="253.29" y1="2863.39" x2="822.89" y2="2863.39" gradientUnits="userSpaceOnUse">
      <stop offset="0" stop-color="#fcb148"/>
      <stop offset=".05" stop-color="#fdb946"/>
      <stop offset=".14" stop-color="#fec144"/>
      <stop offset=".32" stop-color="#ffc444"/>
      <stop offset=".48" stop-color="#fdb946"/>
      <stop offset=".78" stop-color="#f99c4c"/>
      <stop offset=".87" stop-color="#f8924f"/>
      <stop offset="1" stop-color="#f8924f"/>
    </linearGradient>
    <linearGradient id="linear-gradient-22" x1="540.7" y1="2799.23" x2="570.73" y2="3050.61" gradientUnits="userSpaceOnUse">
      <stop offset="0" stop-color="#ffdb44"/>
      <stop offset="1" stop-color="#feef06"/>
    </linearGradient>
    <linearGradient id="linear-gradient-23" x1="539.4" y1="2788.01" x2="548.62" y2="2865.22" xlink:href="#linear-gradient-22"/>
    <linearGradient id="linear-gradient-24" x1="316.03" y1="524.4" x2="325.22" y2="601.33" gradientTransform="translate(864.1 3381.52) rotate(-180)" gradientUnits="userSpaceOnUse">
      <stop offset="0" stop-color="#f36f56"/>
      <stop offset=".31" stop-color="#f99c4c"/>
      <stop offset=".55" stop-color="#fdb946"/>
      <stop offset=".68" stop-color="#ffc444"/>
      <stop offset=".8" stop-color="#fec144"/>
      <stop offset=".87" stop-color="#fdb946"/>
      <stop offset=".92" stop-color="#fbac49"/>
      <stop offset=".96" stop-color="#f8994d"/>
      <stop offset="1" stop-color="#f58152"/>
      <stop offset="1" stop-color="#f57e53"/>
    </linearGradient>
    <linearGradient id="linear-gradient-25" x1="184.47" y1="2805.71" x2="754.07" y2="2805.71" xlink:href="#linear-gradient-21"/>
    <linearGradient id="linear-gradient-26" x1="471.88" y1="2741.55" x2="501.91" y2="2992.93" xlink:href="#linear-gradient-22"/>
    <linearGradient id="linear-gradient-27" x1="470.58" y1="2730.34" x2="479.8" y2="2807.54" xlink:href="#linear-gradient-22"/>
    <linearGradient id="linear-gradient-28" x1="384.85" y1="582.07" x2="394.04" y2="659" xlink:href="#linear-gradient-24"/>
    <linearGradient id="linear-gradient-29" x1="243.85" y1="2748.21" x2="813.45" y2="2748.21" xlink:href="#linear-gradient-21"/>
    <linearGradient id="linear-gradient-30" x1="531.27" y1="2684.04" x2="561.3" y2="2935.43" xlink:href="#linear-gradient-22"/>
    <linearGradient id="linear-gradient-31" x1="529.96" y1="2672.83" x2="539.18" y2="2750.04" xlink:href="#linear-gradient-22"/>
    <linearGradient id="linear-gradient-32" x1="325.47" y1="639.58" x2="334.66" y2="716.51" xlink:href="#linear-gradient-24"/>
    <linearGradient id="linear-gradient-33" x1="279.88" y1="2690.53" x2="849.48" y2="2690.53" xlink:href="#linear-gradient-21"/>
    <linearGradient id="linear-gradient-34" x1="567.3" y1="2626.37" x2="597.33" y2="2877.75" xlink:href="#linear-gradient-22"/>
    <linearGradient id="linear-gradient-35" x1="566" y1="2615.16" x2="575.22" y2="2692.36" xlink:href="#linear-gradient-22"/>
    <linearGradient id="linear-gradient-36" x1="289.43" y1="697.26" x2="298.62" y2="774.19" xlink:href="#linear-gradient-24"/>
    <linearGradient id="linear-gradient-37" y1="2628.3" y2="2628.3" xlink:href="#linear-gradient-21"/>
    <linearGradient id="linear-gradient-38" x1="540.7" y1="2564.14" x2="570.73" y2="2815.53" xlink:href="#linear-gradient-22"/>
    <linearGradient id="linear-gradient-39" x1="539.4" y1="2552.93" x2="548.62" y2="2630.13" xlink:href="#linear-gradient-22"/>
    <linearGradient id="linear-gradient-40" x1="316.03" y1="759.48" x2="325.22" y2="836.41" xlink:href="#linear-gradient-24"/>
    <linearGradient id="linear-gradient-41" x1="184.47" y1="2570.63" x2="754.07" y2="2570.63" xlink:href="#linear-gradient-21"/>
    <linearGradient id="linear-gradient-42" x1="471.88" y1="2506.47" x2="501.91" y2="2757.85" xlink:href="#linear-gradient-22"/>
    <linearGradient id="linear-gradient-43" x1="470.58" y1="2495.25" x2="479.8" y2="2572.46" xlink:href="#linear-gradient-22"/>
    <linearGradient id="linear-gradient-44" x1="384.85" y1="817.16" x2="394.04" y2="894.09" xlink:href="#linear-gradient-24"/>
    <linearGradient id="linear-gradient-45" x1="243.85" y1="2513.12" x2="813.45" y2="2513.12" xlink:href="#linear-gradient-21"/>
    <linearGradient id="linear-gradient-46" x1="531.27" y1="2448.96" x2="561.3" y2="2700.34" xlink:href="#linear-gradient-22"/>
    <linearGradient id="linear-gradient-47" x1="529.96" y1="2437.75" x2="539.18" y2="2514.95" xlink:href="#linear-gradient-22"/>
    <linearGradient id="linear-gradient-48" x1="325.47" y1="874.66" x2="334.66" y2="951.59" xlink:href="#linear-gradient-24"/>
    <linearGradient id="linear-gradient-49" x1="212.96" y1="2455.45" x2="782.56" y2="2455.45" xlink:href="#linear-gradient-21"/>
    <linearGradient id="linear-gradient-50" x1="500.38" y1="2391.28" x2="530.41" y2="2642.67" xlink:href="#linear-gradient-22"/>
    <linearGradient id="linear-gradient-51" x1="499.07" y1="2380.07" x2="508.3" y2="2457.28" xlink:href="#linear-gradient-22"/>
    <linearGradient id="linear-gradient-52" x1="356.35" y1="932.34" x2="365.54" y2="1009.27" xlink:href="#linear-gradient-24"/>
    <linearGradient id="linear-gradient-53" x1="1469.55" y1="2248.08" x2="2039.15" y2="2248.08" gradientTransform="translate(1741.05 -59.16) rotate(54.58)" xlink:href="#linear-gradient-21"/>
    <linearGradient id="linear-gradient-54" x1="1756.97" y1="2183.92" x2="1786.99" y2="2435.28" gradientTransform="translate(1741.05 -59.16) rotate(54.58)" xlink:href="#linear-gradient-22"/>
    <linearGradient id="linear-gradient-55" x1="1755.66" y1="2172.72" x2="1764.88" y2="2249.91" gradientTransform="translate(1741.05 -59.16) rotate(54.58)" xlink:href="#linear-gradient-22"/>
    <linearGradient id="linear-gradient-56" x1="-899.66" y1="1139.26" x2="-890.48" y2="1216.17" gradientTransform="translate(-513.02 2605.12) rotate(-125.42)" xlink:href="#linear-gradient-24"/>
    <linearGradient id="linear-gradient-57" x1="1836.72" y1="2066.45" x2="2062.88" y2="2408.27" gradientTransform="matrix(1,0,0,1,0,0)" xlink:href="#linear-gradient-3"/>
    <linearGradient id="linear-gradient-58" x1="2540.65" y1="2270.03" x2="2209.69" y2="2828.98" gradientTransform="matrix(1,0,0,1,0,0)" xlink:href="#linear-gradient-3"/>
    <linearGradient id="linear-gradient-59" x1="2299.37" y1="2093.96" x2="2246.94" y2="2278.71" xlink:href="#linear-gradient-2"/>
    <linearGradient id="linear-gradient-60" x1="2563.84" y1="2284.26" x2="2229.92" y2="2848.22" xlink:href="#linear-gradient-2"/>
    <linearGradient id="linear-gradient-61" x1="2354.59" y1="2287.57" x2="2488.97" y2="2964.54" xlink:href="#linear-gradient-7"/>
    <linearGradient id="linear-gradient-62" x1="2374.97" y1="2498.2" x2="2612.99" y2="2463" xlink:href="#linear-gradient-7"/>
    <linearGradient id="linear-gradient-63" x1="2065.28" y1="2492.99" x2="2292.47" y2="2459.39" xlink:href="#linear-gradient-7"/>
    <linearGradient id="linear-gradient-64" x1="2214.98" y1="2257.69" x2="2720" y2="2183.01" xlink:href="#linear-gradient-7"/>
    <linearGradient id="linear-gradient-65" x1="2470.96" y1="2109.47" x2="2345.83" y2="2239.6" xlink:href="#linear-gradient-7"/>
    <linearGradient id="linear-gradient-66" x1="2491.11" y1="2128.84" x2="2365.98" y2="2258.97" xlink:href="#linear-gradient-7"/>
    <linearGradient id="linear-gradient-67" x1="2175.3" y1="2161.34" x2="2507.62" y2="2112.2" xlink:href="#linear-gradient-7"/>
    <linearGradient id="linear-gradient-68" x1="2179.17" y1="2187.48" x2="2511.48" y2="2138.34" xlink:href="#linear-gradient-7"/>
    <linearGradient id="linear-gradient-69" x1="2112.55" y1="2253.57" x2="2395.88" y2="2211.66" xlink:href="#linear-gradient-7"/>
  </defs>
  <g class="cls-84">
    <g id="Layer_2" data-name="Layer 2">
      <g id="Illustration">
        <g>
          <path class="cls-75" d="m2610.25,617.22C2004.52-145.61,570.46-188.25,148.79,416.79-83.54,750.16,13.55,1248.5,61.45,1494.38c88.15,452.48,305.53,743.78,353,805.57,115.18,149.93,394.94,514.11,815.86,597.36,719.22,142.24,1616.63-581.98,1666.35-1399.06,28.66-471.07-234.04-815.08-286.41-881.03Z"/>
          <g>
            <g>
              <path class="cls-1" d="m2219.2,2477.04c-86.65-99.34-199.68-259.15-237.28-473.74-43.18-246.42,52.55-339.87,54.04-623.42,2.13-404.77-269.26-582.51-161.33-751.61,52.64-82.46,169.35-131.88,263-111.07,267.2,59.39,480.39,720.23,259.76,1106.62-99.78,174.76-233.99,215.81-283.02,408.06-43.32,169.88,36.09,336.23,104.82,445.15Z"/>
              <g class="cls-3">
                <g class="cls-83">
                  <path class="cls-73" d="m2069.5,2197.15c-8.21-53.92-11.79-108.83-10.65-163.22,2.63-125.01,30.09-204.66,64.86-305.51,22.59-65.52,48.2-139.79,71.44-240.51,43.48-188.42,54.48-252.76,49-346.43-10.84-185.51-80.81-326.35-121.55-393.79-57.79-95.67-132.99-178.16-223.51-245.2l2.16-2.91c90.9,67.32,166.42,150.16,224.45,246.23,40.91,67.73,111.17,209.16,122.06,395.45,5.5,94.13-5.51,158.64-49.08,347.46-23.29,100.91-48.93,175.27-71.55,240.88-34.67,100.55-62.05,179.97-64.66,304.41-1.14,54.17,2.43,108.88,10.61,162.59l-3.57.54Z"/>
                  <path class="cls-73" d="m2227.73,1014.58l-1.21-2.72c-52.32-117.83-160.7-162.59-242.41-179.39-88.73-18.25-166.08-8.4-166.86-8.3l-.47-3.58c.78-.1,78.65-10.02,167.96,8.32,81.93,16.83,190.42,61.51,243.84,178.71,8.83-11.86,47.72-67.03,69.92-147.02,23.08-83.13,32.32-210.87-54.69-347.34l3.05-1.94c87.76,137.65,78.4,266.52,55.09,350.39-25.25,90.84-71.89,149.96-72.36,150.55l-1.86,2.33Z"/>
                  <path class="cls-73" d="m2211.39,1437.46c-1.58,0-2.43-.02-2.5-.02l-1.52-.05-.22-1.5c-18.74-129.51-81.6-204.18-131.03-244.02-53.59-43.19-103.41-55.91-103.91-56.03l.87-3.51c.5.12,50.97,12.98,105.17,56.62,49.8,40.09,113.06,115.07,132.25,244.89h.49c22.61,0,229.34-5.1,329.37-184.26l3.16,1.76c-55.64,99.66-143.67,144.95-207.71,165.4-61.14,19.52-112.68,20.72-124.42,20.72Z"/>
                  <path class="cls-73" d="m2195.31,1713.53c-38.74,0-61.93-7.97-62.23-8.08l-1.22-.43v-1.3c1.61-140.28-152.51-303.58-154.06-305.21l2.62-2.5c1.56,1.64,155.73,164.97,155.09,306.42,7.05,2.16,44.19,12.28,99.71,4.73,56.86-7.73,145.18-36.1,243.03-127.35l2.46,2.65c-98.65,91.99-187.82,120.56-245.25,128.32-14.72,1.99-28.18,2.75-40.15,2.75Z"/>
                </g>
              </g>
            </g>
            <g>
              <path class="cls-82" d="m2025.36,2345.83c-45.59-72.07-104.15-189.97-86.86-324.88,30.17-235.36,257.23-257.57,363.64-541.07,85.83-228.65-16.61-334.81,109.1-515.82,21.04-30.3,130.54-194.36,268.83-181.94,77.93,7,130.41,66.84,140.26,78.07,148.89,169.79,78.55,563.99-123.77,816.26-116.24,144.94-176.06,138.95-401.01,345.8-132.18,121.55-218.79,242.69-270.2,323.59Z"/>
              <g class="cls-79">
                <g class="cls-83">
                  <path class="cls-73" d="m2038.86,2449.25c-39.81-201.61-19.29-357.06,60.97-462.03,39.3-51.4,78.54-73.5,120.09-96.9,44.63-25.13,90.78-51.12,138.38-116.86,46.26-63.88,53.23-109.51,62.07-167.29,7.95-52.01,17.85-116.74,59.88-215.17,36.84-86.27,70.27-133.49,99.76-175.15,31.92-45.09,57.13-80.71,74.76-149.28,28.8-112.01,16.64-234.87-36.14-365.18l3.35-1.36c53.08,131.04,65.29,254.67,36.29,367.45-17.79,69.21-43.18,105.07-75.31,150.46-29.39,41.51-62.69,88.57-99.39,174.49-41.86,98.01-51.71,162.49-59.64,214.29-8.91,58.26-15.94,104.27-62.71,168.86-48.07,66.38-94.57,92.57-139.53,117.89-41.21,23.21-80.14,45.13-118.99,95.94-79.61,104.11-99.89,258.59-60.3,459.13l-3.55.7Z"/>
                  <path class="cls-73" d="m2567.08,1237.64l-.2-2.41c-.24-2.94-25.84-295.05-165.36-361.18l1.55-3.27c134.57,63.79,164.41,333.32,167.19,361.75,142.24-55.81,224.32-153.32,268.18-225.48,47.77-78.59,61.74-144.79,61.87-145.44l3.55.73c-.14.67-14.24,67.48-62.33,146.6-44.38,73.02-127.63,171.82-272.2,227.85l-2.26.87Z"/>
                  <path class="cls-73" d="m2445.87,1498.46c-.88,0-1.36,0-1.41,0l-1.56-.03-.2-1.54c-10.27-78.16-46.19-163.25-74.52-220.87-30.7-62.47-59.33-106.97-59.62-107.41l3.04-1.96c.28.44,29.03,45.12,59.82,107.78,28.25,57.48,64.04,142.21,74.65,220.43,11.52-.01,85.93-1.31,180.11-30.9,94.11-29.57,227.78-94.24,330.14-234.47l2.92,2.13c-102.97,141.07-237.44,206.11-332.11,235.84-95.06,29.84-170.14,31.02-181.26,31.02Z"/>
                  <path class="cls-73" d="m2364.58,1879.25c-65.02,0-103.54-8.78-104.41-8.99l-1.85-.44.54-1.83c49.18-167.15-77.23-355.57-78.52-357.46l2.99-2.04c1.29,1.89,127.73,190.31,79.54,358.65,20.75,4.29,211.77,39.09,459.57-72.1l1.48,3.3c-147.8,66.31-275.56,80.9-359.34,80.9Z"/>
                </g>
              </g>
            </g>
            <path class="cls-66" d="m1994.81,2281.15c29.99-49.2,81.57-123.87,162.21-197.64,143.45-131.21,235.71-128.63,276.97-230.2,42.71-105.13-35.96-157.6,17.69-277.52,4.51-10.08,63.08-136.55,162.67-140.81,69.67-2.98,122,55.45,146.56,82.87,95.3,106.41,150.72,306.53,57.52,456.23-88.36,141.93-265.61,167.08-322.03,174.71-98.99,13.38-134.66-12.32-234.16,3.98-121,19.82-211.3,81.25-267.43,128.39Z"/>
          </g>
          <g>
            <g>
              <path class="cls-81" d="m972.7,2645.43c45.59-72.07,104.15-189.97,86.86-324.88-30.17-235.36-257.23-257.57-363.64-541.07-85.83-228.65,16.61-334.81-109.1-515.82-21.04-30.3-130.54-194.36-268.83-181.94-77.93,7-130.41,66.84-140.26,78.07-148.89,169.79-78.55,563.99,123.77,816.26,116.24,144.94,176.06,138.95,401.01,345.8,132.18,121.55,218.79,242.69,270.2,323.59Z"/>
              <g class="cls-80">
                <g class="cls-83">
                  <path class="cls-73" d="m959.19,2748.86l-3.55-.7c39.6-200.55,19.31-355.02-60.3-459.14-38.85-50.81-77.78-72.73-118.99-95.94-44.97-25.33-91.47-51.51-139.53-117.89-46.77-64.59-53.81-110.6-62.71-168.86-7.92-51.81-17.78-116.29-59.64-214.29-36.69-85.92-70-132.97-99.39-174.48-32.14-45.4-57.52-81.26-75.31-150.47-29-112.78-16.79-236.4,36.29-367.44l3.35,1.36c-52.78,130.31-64.94,253.17-36.14,365.18,17.63,68.57,42.84,104.18,74.76,149.28,29.49,41.66,62.92,88.88,99.76,175.15,42.04,98.43,51.93,163.16,59.88,215.17,8.83,57.77,15.81,103.4,62.07,167.29,47.61,65.74,93.75,91.73,138.38,116.86,41.54,23.4,80.79,45.5,120.09,96.9,80.26,104.98,100.78,260.43,60.97,462.04Z"/>
                  <path class="cls-73" d="m430.97,1537.24l-2.26-.87c-144.57-56.03-227.82-154.83-272.2-227.85-48.09-79.12-62.19-145.93-62.33-146.6l3.55-.73c.13.66,14.14,66.97,61.95,145.57,43.86,72.12,125.92,169.57,268.11,225.36,2.78-28.43,32.62-297.96,167.19-361.75l1.55,3.27c-139.53,66.14-165.12,358.24-165.36,361.18l-.2,2.41Z"/>
                  <path class="cls-73" d="m552.18,1798.06c-11.11,0-86.2-1.18-181.27-31.02-94.67-29.72-229.14-94.76-332.11-235.84l2.92-2.13c102.4,140.28,236.12,204.96,330.27,234.52,94.14,29.55,168.45,30.84,179.98,30.86,10.61-78.22,46.4-162.96,74.65-220.43,30.8-62.65,59.54-107.33,59.82-107.78l3.04,1.96c-.29.44-28.93,44.98-59.64,107.45-28.31,57.61-64.22,142.68-74.5,220.83l-.2,1.54-1.56.03c-.06,0-.54,0-1.41,0Z"/>
                  <path class="cls-73" d="m633.47,2178.85c-83.78,0-211.53-14.58-359.34-80.9l1.48-3.3c247.79,111.18,438.8,76.39,459.57,72.1-48.19-168.34,78.25-356.76,79.54-358.65l2.99,2.04c-1.28,1.88-127.69,190.31-78.52,357.46l.54,1.83-1.85.44c-.86.21-39.41,8.99-104.41,8.99Z"/>
                </g>
              </g>
            </g>
            <path class="cls-70" d="m1003.24,2580.75c-29.99-49.2-81.57-123.87-162.21-197.64-143.45-131.21-235.71-128.63-276.97-230.2-42.71-105.13,35.96-157.6-17.69-277.52-4.51-10.08-63.08-136.55-162.67-140.81-69.67-2.98-122,55.45-146.56,82.87-95.3,106.41-150.72,306.53-57.52,456.23,88.36,141.93,265.61,167.08,322.03,174.71,98.99,13.38,134.66-12.32,234.16,3.98,121,19.82,211.3,81.25,267.43,128.39Z"/>
          </g>
          <g>
            <path class="cls-68" d="m1713.39,967.88c-.67.07-1.34.1-2,.1-10.61,0-19.67-8.66-20.7-20.23-18.23-205.41-80.58-400.57-175.57-549.55-84.15-131.98-184.34-210.74-268.04-210.74h-.28c-304.89.64-368.66,752.48-369.27,760.08-.99,12.3-11.02,21.41-22.52,20.36-11.45-1.06-19.94-11.89-18.96-24.19,2.61-32.68,67.89-800.24,410.67-800.96h.37c98.9,0,209.09,83.87,302.39,230.18,98.91,155.12,163.78,357.75,182.67,570.57,1.09,12.29-7.3,23.21-18.75,24.38Z"/>
            <path class="cls-67" d="m441.23,2515.33l401.35,218.25,243.18-801.5-400.69-1074.53-113.62,29.92-172.39,1543.22c-3.9,34.93,12.95,68.76,42.17,84.65Z"/>
            <path class="cls-64" d="m1085.75,1932.08l-400.69-1074.53-67.02,17.65c-9.29,143.47-5.21,261.54,1.1,347.51,26.86,365.84,116.07,467.65,72.85,722.87-35.93,212.21-114.4,241.01-107.54,383.79,7.47,155.5,108.45,285.71,228.5,388.11l29.61,16.1,243.18-801.5Z"/>
            <polygon class="cls-23" points="685.06 857.54 2196.48 939.83 2676.8 2574.84 842.57 2733.58 685.06 857.54"/>
            <g class="cls-78">
              <path class="cls-20" d="m2196.48,939.83l-788.21-42.91c-13.3,20.91-30.92,54.98-34.2,98.44-19.4,257.05,511.01,340.27,558.54,655.8,36.18,240.22-186.44,517.4-385.08,640.89-209.28,130.11-351.08,64.22-492.62,208.66-62.19,63.46-100.06,142.83-122.58,225.09l1744.48-150.97-480.32-1635.01Z"/>
            </g>
            <path class="cls-21" d="m1148.65,1004.73c-9.45,0-18-6.95-20.25-17.26-4.25-19.47-102.57-479.63,36.06-705.46,39.73-64.72,95.25-104.24,165-117.46,358.38-67.82,579.02,758.91,588.24,794.13,3.11,11.89-3.34,24.23-14.41,27.57-11.08,3.35-22.56-3.59-25.67-15.47-2.16-8.23-219.36-823.18-540.93-762.19-58.85,11.15-103.82,43.21-137.47,98.03-128.87,209.92-31.28,666.05-30.28,670.64,2.63,12.02-4.32,24.05-15.51,26.87-1.6.4-3.2.59-4.77.59Z"/>
            <ellipse class="cls-22" cx="1148.79" cy="1008.1" rx="58.17" ry="62.48"/>
            <ellipse class="cls-30" cx="1907.43" cy="1002.31" rx="58.17" ry="62.48"/>
            <path class="cls-72" d="m2312.15,1726.58l-469.25-457.56c-9.89-9.64-24.06-12.34-36.43-6.94l-250.42,109.33c-21.1,9.21-28.38,37.38-14.71,56.95l408.7,585.16c11.3,16.17,32.53,19.74,47.89,8.04l310.97-236.92c18.1-13.79,19.69-42.03,3.25-58.06Zm-536.59-296.71c-15.81,11.42-40.73,1.34-55.66-22.51-14.93-23.85-14.21-52.44,1.6-63.86,15.81-11.42,40.73-1.34,55.66,22.51,14.93,23.85,14.21,52.44-1.6,63.86Z"/>
            <path class="cls-75" d="m2312.15,1720.33l-469.25-457.56c-9.89-9.64-24.06-12.34-36.43-6.94l-250.42,109.33c-21.1,9.21-28.38,37.38-14.71,56.95l408.7,585.16c11.3,16.17,32.53,19.74,47.89,8.04l310.97-236.92c18.1-13.79,19.69-42.03,3.25-58.06Zm-536.59-296.71c-15.81,11.42-40.73,1.34-55.66-22.51-14.93-23.85-14.21-52.44,1.6-63.86,15.81-11.42,40.73-1.34,55.66,22.51,14.93,23.85,14.21,52.44-1.6,63.86Z"/>
            <path class="cls-71" d="m1678.04,1311.25c-1.5,0-2.92-.88-3.55-2.35-16.26-38.32-38.18-71.42-65.17-98.38-73.94-73.88-169.43-85.49-261.77-96.73-91.89-11.18-178.68-21.74-230.52-94.86-13.12-18.51-33.51-51.96-22.57-68.06,4.39-6.46,13.15-9.43,26.01-8.81,2.12.1,3.76,1.9,3.66,4.03-.1,2.12-1.88,3.8-4.03,3.66-6.89-.32-15.82.36-19.28,5.45-5.81,8.55,3.02,31.82,22.49,59.28,49.87,70.34,135.02,80.7,225.17,91.67,93.64,11.39,190.46,23.17,266.28,98.92,27.69,27.67,50.17,61.59,66.81,100.83.83,1.96-.08,4.22-2.04,5.05-.49.21-1,.31-1.5.31Z"/>
            <path class="cls-71" d="m1718.12,1388.69c-.99,0-1.98-.38-2.73-1.13-1.5-1.51-1.49-3.94.01-5.44.32-.32,32.45-32.84,32.3-76.21-.1-26.64-12.22-52-36.02-75.38-50.48-49.57-184.42-106.98-302.59-157.64-72.13-30.92-140.25-60.12-184.99-85.3-10.15-5.71-20.88-11.13-31.9-16.12-1.94-.88-2.8-3.16-1.92-5.09.87-1.94,3.15-2.8,5.09-1.92,11.23,5.08,22.16,10.6,32.5,16.42,44.38,24.98,112.32,54.1,184.25,84.93,118.79,50.92,253.44,108.64,304.95,159.22,25.35,24.89,38.24,52.12,38.33,80.92.13,46.62-33.15,80.21-34.57,81.62-.75.75-1.73,1.12-2.71,1.12Z"/>
            <path class="cls-73" d="m2312.15,1720.33l-469.25-457.56c-9.89-9.64-24.05-12.34-36.43-6.94l-22.3,9.74c5.83,21.27,14.56,45.2,27.88,69.63,69.32,127.1,183.03,121.62,209.31,209.82,23.29,78.17-54.82,120.11-65.12,229.81-5.14,54.81,6.6,127.72,69.5,219.3l283.16-215.73c18.1-13.79,19.69-42.03,3.25-58.06Z"/>
            <path class="cls-72" d="m1891.08,1564.59c25.7,42.51,20.39,77.77-.09,92.05-21.57,15.05-52.55,3.77-75.6-34.36-21.92-36.25-23.09-74.55,1.09-91.42,24.4-17.02,53.62-.97,74.6,33.73Zm-51.83,39.27c12.85,21.25,27.12,33.07,36.71,26.39,9.36-6.53,5.63-23.48-8.17-46.29-12.47-20.63-26.04-33.83-36.27-26.69-9.8,6.84-4.55,26.28,7.73,46.6Zm104.89,136.58l-45.74-266.72,17.86-12.46,45.53,266.87-17.65,12.31Zm99.93-162.59c25.7,42.51,20.39,77.77-.09,92.06-21.35,14.89-52.33,3.62-75.61-34.36-21.92-36.26-23.09-74.55,1.1-91.42,24.4-17.02,53.62-.97,74.6,33.73Zm-51.62,39.12c12.64,21.41,26.91,33.23,36.49,26.54,9.37-6.53,5.63-23.48-8.17-46.3-12.47-20.63-25.81-33.98-36.05-26.84-10.02,6.99-4.55,26.28,7.73,46.6Z"/>
            <path class="cls-72" d="m1953.97,1887.99c-6.29,0-12.42-3.42-15.92-9.62-5.33-9.43-2.53-21.72,6.25-27.45l225.97-147.34c8.78-5.72,20.23-2.71,25.56,6.71,5.33,9.43,2.53,21.72-6.25,27.45l-225.97,147.34c-3.02,1.97-6.35,2.9-9.64,2.9Z"/>
          </g>
          <g>
            <g>
              <path class="cls-26" d="m1655.72,2739.57c0,20.52-14.57,38.17-32.44,39.23l-1259.35,76.92c-23.86,1.41-50.79-18.77-50.79-42.62v-881.32c0-23.85,27.58-43.91,51.44-42.92l1258.7,53.88c17.87.74,32.44,18.13,32.44,38.65v758.18Z"/>
              <path class="cls-25" d="m1679.07,2741.01c0,20.62-14.64,38.36-32.6,39.42l-1272.8,75.45c-23.97,1.42-43.68-17.02-43.68-40.99v-885.59c0-23.97,19.7-42.76,43.68-41.77l1272.8,52.78c17.96.74,32.6,18.22,32.6,38.84v761.85Z"/>
              <polygon class="cls-24" points="1679.07 2533.4 330 2602.61 330 2764.8 1679.07 2685.61 1679.07 2533.4"/>
              <g>
                <g class="cls-77">
                  <path class="cls-29" d="m728.15,2180.39c-1.52,100.64-64.47,152.95-134.55,152.68-76.36-.29-137.57-58.84-136.11-154.96,1.38-91.4,58.96-156.51,144.51-150.12,83.01,6.2,127.39,70.27,126.15,152.41Zm-181.27-1.93c-.79,52.5,16.39,90.66,49.95,91.29,32.3.6,48.41-32.31,49.24-87.39.75-49.8-12.02-89.08-47.29-91.2-34.32-2.06-51.13,37.12-51.89,87.31Zm70.86,323.57l243.19-440.31c4.65-8.42,13.78-13.36,23.38-12.64h0c17.84,1.33,28.34,20.64,19.76,36.34l-240.5,440.19c-4.13,7.56-11.91,12.41-20.51,12.79l-2.69.12c-19.2.85-31.92-19.66-22.63-36.48Zm416.11-124.08c-1.41,93.21-55.44,144.22-115.4,146.85-64.49,2.83-116.51-48.58-115.85-137.17,1.27-84.25,50.36-146.87,123.36-144.91,71.04,1.91,109.05,59.15,107.9,135.23Zm-154.46,6.12c-1.39,48.48,13.23,82.96,41.89,82.13,27.62-.81,41.43-31.9,42.2-82.85.7-46.06-9.56-81.78-39.71-82.15-29.96-.36-43.68,36.54-44.38,82.86Z"/>
                </g>
                <path class="cls-73" d="m739.9,2175.71c-1.52,100.64-64.47,152.95-134.55,152.68-76.36-.29-137.57-58.84-136.11-154.96,1.38-91.4,58.96-156.51,144.51-150.12,83.01,6.2,127.39,70.27,126.15,152.41Zm-181.27-1.93c-.79,52.5,16.39,90.66,49.95,91.29,32.3.6,48.41-32.31,49.24-87.39.75-49.8-12.02-89.08-47.29-91.2-34.32-2.06-51.13,37.12-51.89,87.31Zm70.86,323.57l243.19-440.31c4.65-8.42,13.78-13.36,23.38-12.64h0c17.84,1.33,28.34,20.64,19.76,36.34l-240.5,440.19c-4.13,7.56-11.91,12.41-20.51,12.79l-2.69.12c-19.2.85-31.92-19.66-22.63-36.48Zm416.11-124.08c-1.41,93.21-55.44,144.22-115.4,146.85-64.49,2.83-116.51-48.58-115.85-137.17,1.27-84.25,50.36-146.87,123.36-144.91,71.04,1.91,109.05,59.15,107.9,135.23Zm-154.46,6.12c-1.39,48.48,13.23,82.96,41.89,82.13,27.62-.81,41.43-31.9,42.2-82.85.7-46.06-9.56-81.78-39.71-82.15-29.96-.36-43.68,36.54-44.38,82.86Z"/>
              </g>
              <path class="cls-6" d="m1646.47,1940.32l-1258.14-52.17c56.79,168.16,138.11,243.49,207.95,280.36,132.98,70.2,228.35,3.16,342.34,94.05,116.94,93.24,72.43,208.35,195.62,285.91,92.59,58.29,152.27,15.02,248.29,67.72,71.12,39.03,115.55,105.13,143.98,171.35l119.95-7.11c17.96-1.06,32.6-18.8,32.6-39.42v-761.85c0-20.62-14.64-38.1-32.6-38.84Z"/>
              <path class="cls-5" d="m1661.35,2343.37l-30.7-29.13-29.13,30.7-30.7-29.13-29.13,30.7-30.7-29.13-29.13,30.7-30.7-29.13-29.13,30.7-30.7-29.13-29.13,30.7-30.7-29.13-29.13,30.7-30.7-29.13-29.13,30.7-30.7-29.13-29.13,30.7-39.22-37.22c0,14.86,0,459.85,0,459.85,0,0-1.6,26.34-33.44,33.26l542.94-39.8c6.2-.46,12-2.2,17.21-4.9,5.47-7.04,8.85-16.23,8.85-26.1v-416.32l-17.72,18.68Z"/>
            </g>
            <g>
              <path class="cls-73" d="m1748.63,2328.12v418.89c0,23.38-18.62,42.79-41.92,44.51l-172.17,12.61-372.01,27.2c31.85-6.93,32.53-33.27,32.53-33.27v-459.85l40,37.23,20.95-21.67,8.76-9.02,30.8,29.13,29.18-30.7,30.72,29.13,29.14-30.7,30.7,29.13,29.13-30.7,30.7,29.13,29.13-30.7,30.7,29.13,29.15-30.7,30.7,29.13,29.13-30.7,30.7,29.15,29.13-30.72,31.28,29.15,33.58-34.77Z"/>
              <g>
                <path class="cls-72" d="m1685.95,2571.39l-67.14,3.03c-4.52.2-8.07,3.92-8.07,8.45v30.82c0,4.86,4.08,8.71,8.93,8.44l67.14-3.78c4.48-.25,7.98-3.96,7.98-8.44v-30.06c0-4.82-4.02-8.66-8.83-8.45Z"/>
                <path class="cls-72" d="m1685.86,2630.95l-67.14,3.78c-4.48.25-7.98,3.96-7.98,8.44v32.18c0,4.88,4.12,8.75,8.99,8.44l67.14-4.29c4.45-.28,7.92-3.98,7.92-8.44v-31.68c0-4.86-4.08-8.71-8.93-8.44Z"/>
                <path class="cls-72" d="m1694.79,2485.98v-55.14c0-4.79-3.97-8.62-8.76-8.45l-67.14,2.42c-4.55.16-8.15,3.9-8.15,8.45v55.75c0,4.82,4.02,8.66,8.83,8.45l67.14-3.03c4.52-.2,8.07-3.92,8.07-8.44Z"/>
              </g>
              <g>
                <path class="cls-72" d="m1546.45,2577.68l-273.4,12.33c-4.52.2-8.07,3.92-8.07,8.45v34.72c0,4.86,4.08,8.71,8.93,8.44l273.4-15.41c4.48-.25,7.98-3.96,7.98-8.44v-31.63c0-4.82-4.02-8.66-8.83-8.44Z"/>
                <path class="cls-72" d="m1546.35,2638.82l-273.4,15.41c-4.48.25-7.98,3.96-7.98,8.44v34.76c0,4.88,4.12,8.75,8.99,8.44l273.4-17.45c4.45-.28,7.92-3.98,7.92-8.44v-32.72c0-4.86-4.08-8.71-8.93-8.44Z"/>
                <path class="cls-72" d="m1555.28,2492.27v-56.41c0-4.79-3.97-8.62-8.76-8.45l-273.4,9.84c-4.55.16-8.15,3.9-8.15,8.45v58.89c0,4.82,4.02,8.66,8.83,8.44l273.4-12.33c4.52-.2,8.07-3.92,8.07-8.44Z"/>
              </g>
              <path class="cls-76" d="m1534.25,2804.13l-371.86,27.2c31.85-6.93,32.68-33.27,32.68-33.27v-459.85l40,37.23,20.95-21.67c17.48,15.81,31.52,41.2,35.42,81.44,13,133.96,75.75,125.14,149.83,130.17,74.08,5.03,108.18,90.76,78.2,157.01-13.41,29.63-7.94,59.49,14.77,81.74Z"/>
            </g>
          </g>
          <g>
            <g>
              <path class="cls-28" d="m295.61,2819.87v54.91c0,17.74,110.84,32.13,247.56,32.13s247.56-14.38,247.56-32.13v-54.91h-495.12Z"/>
              <path class="cls-31" d="m790.73,2819.87c0,17.74-110.84,32.13-247.56,32.13s-247.56-14.38-247.56-32.13,110.84-32.13,247.56-32.13,247.56,14.38,247.56,32.13Z"/>
              <path class="cls-27" d="m543.17,2854.21c-121.09,0-247.7-11.57-247.7-33.87,0-1.22.44-3.38,1.66-3.38s.7,1.68.7,2.91c0,14.15,100.76,29.91,245.34,29.91s245.34-15.76,245.34-29.91c0-1.22.21-2.37,1.43-2.37s.93,1.63.93,2.86c0,22.31-126.62,33.85-247.71,33.85Z"/>
              <path class="cls-74" d="m519.78,2821.66c2.43-1.68,5.01-3.34,7.78-4.98,2.74-1.64,6.31-3.11,10.63-4.43,4.35-1.32,9.79-2.39,16.32-3.23,6.53-.83,14.7-1.27,24.44-1.32,9.57-.05,18.54.26,26.94.91,8.38.65,15.77,1.63,22.16,2.93,6.36,1.3,11.55,2.91,15.56,4.83,3.98,1.92,6.35,4.11,7.11,6.59l27.87.28c2.02.01,3.81.18,5.34.49,1.56.32,2.31.72,2.31,1.21v2.3s-35.82-.35-35.82-.35c-1.26,2.81-4.46,5.38-9.61,7.71-5.12,2.34-11.67,4.35-19.65,6.06l-13.05-1.81c-1.17-.18-2.13-.41-2.88-.68-.75-.27-1.12-.57-1.12-.9,0-.44,1.01-.94,3.03-1.51,2.02-.57,4.3-1.27,6.83-2.1,2.54-.83,5.02-1.82,7.48-2.96,2.43-1.14,4.06-2.49,4.91-4.07l-84.58-.84c-2.22,1.64-4.73,3.24-7.47,4.82-2.77,1.58-6.42,3-10.97,4.26-4.56,1.26-10.23,2.29-17.02,3.08-6.82.79-15.34,1.2-25.66,1.26-7.75.04-15.3-.26-22.69-.88-7.39-.63-13.96-1.56-19.69-2.81-5.74-1.25-10.44-2.79-14.13-4.63-3.66-1.84-5.72-3.95-6.15-6.34l-22.95-.24c-2.02-.01-3.81-.17-5.42-.48-1.58-.31-2.39-.71-2.39-1.22v-2.29s31.36.3,31.36.3c1.39-2.42,4.23-4.53,8.58-6.32,4.35-1.8,9.65-3.39,15.92-4.79l10.51,1.44c3.19.45,4.78.97,4.78,1.58,0,.33-.64.73-1.96,1.21-1.35.48-2.9,1.06-4.71,1.73-1.79.67-3.55,1.46-5.23,2.36-1.71.9-2.97,1.92-3.82,3.06l77.12.77Zm-77.41,3.13c.63,1.51,2.04,2.8,4.17,3.89,2.13,1.09,4.78,1.99,7.97,2.69,3.19.7,6.77,1.22,10.74,1.55,3.99.33,8.17.48,12.53.46,5.08-.02,9.51-.24,13.3-.66,3.76-.41,7.07-.97,9.95-1.68,2.85-.71,5.36-1.53,7.48-2.47,2.12-.94,4.01-1.96,5.71-3.05l-71.85-.73Zm184.14-2.05c-.63-1.53-2.17-2.86-4.56-4.01-2.39-1.15-5.46-2.11-9.17-2.89-3.71-.78-8.04-1.36-13-1.74-4.93-.38-10.37-.56-16.34-.53-5.29.03-9.88.26-13.69.71-3.81.45-7.13,1.05-9.95,1.81-2.8.76-5.2,1.64-7.14,2.64-1.97,1.01-3.8,2.08-5.48,3.23l79.32.79Z"/>
              <path class="cls-33" d="m543.2,2791.22c-110.38,0-225.31,9.71-243.7,28.52.72.66,1.39,1.37,2.01,2.12,15.5-13.06,110.4-26.2,241.69-26.2s231.08,13.83,242.76,27.21c.57-.73,1.19-1.44,1.85-2.1-15.18-19.47-132.27-29.54-244.62-29.54Z"/>
            </g>
            <g>
              <path class="cls-19" d="m226.79,2762.19v54.91c0,17.74,110.84,32.13,247.56,32.13s247.56-14.38,247.56-32.13v-54.91H226.79Z"/>
              <path class="cls-34" d="m721.91,2762.19c0,17.74-110.84,32.13-247.56,32.13s-247.56-14.38-247.56-32.13,110.84-32.13,247.56-32.13,247.56,14.38,247.56,32.13Z"/>
              <path class="cls-32" d="m474.35,2796.54c-121.08,0-247.7-11.57-247.7-33.87,0-1.23.44-3.38,1.66-3.38s.7,1.68.7,2.91c0,14.15,100.76,29.91,245.34,29.91s245.34-15.76,245.34-29.91c0-1.22.21-2.37,1.43-2.37s.93,1.63.93,2.86c0,22.31-126.62,33.85-247.71,33.85Z"/>
              <path class="cls-74" d="m450.96,2763.99c2.43-1.68,5.01-3.34,7.78-4.98,2.74-1.64,6.31-3.11,10.63-4.43,4.35-1.32,9.79-2.39,16.32-3.23,6.53-.83,14.7-1.27,24.44-1.32,9.57-.05,18.54.26,26.94.91,8.38.65,15.77,1.63,22.16,2.93,6.36,1.3,11.55,2.91,15.56,4.83,3.98,1.92,6.35,4.11,7.11,6.59l27.87.28c2.02.01,3.81.18,5.34.49,1.56.32,2.31.72,2.31,1.21v2.3s-35.82-.34-35.82-.34c-1.26,2.81-4.46,5.38-9.61,7.71-5.12,2.33-11.67,4.35-19.65,6.06l-13.05-1.82c-1.17-.18-2.13-.41-2.88-.68-.75-.27-1.12-.57-1.12-.9,0-.44,1.01-.94,3.03-1.51,2.02-.57,4.3-1.27,6.83-2.11,2.54-.83,5.02-1.82,7.48-2.96,2.43-1.14,4.06-2.49,4.91-4.07l-84.58-.84c-2.22,1.64-4.73,3.24-7.47,4.82-2.77,1.58-6.41,3-10.97,4.26-4.56,1.26-10.23,2.29-17.02,3.07-6.81.79-15.34,1.2-25.66,1.26-7.75.04-15.3-.26-22.69-.88-7.39-.63-13.96-1.56-19.69-2.81-5.74-1.25-10.44-2.79-14.13-4.63-3.66-1.84-5.72-3.95-6.15-6.33l-22.95-.24c-2.02-.01-3.81-.17-5.42-.48-1.58-.31-2.39-.71-2.39-1.22v-2.3s31.36.3,31.36.3c1.39-2.42,4.23-4.53,8.58-6.32,4.35-1.8,9.65-3.39,15.92-4.79l10.51,1.44c3.19.45,4.78.97,4.78,1.58,0,.33-.64.73-1.96,1.21-1.35.48-2.9,1.06-4.71,1.73-1.79.67-3.54,1.46-5.23,2.36-1.71.9-2.97,1.92-3.82,3.06l77.12.77Zm-77.41,3.13c.63,1.5,2.04,2.8,4.17,3.89,2.13,1.09,4.78,1.99,7.97,2.69,3.19.7,6.77,1.22,10.74,1.55,3.99.33,8.17.48,12.53.46,5.08-.03,9.51-.25,13.3-.66,3.76-.41,7.07-.97,9.95-1.68,2.85-.71,5.36-1.53,7.48-2.47,2.12-.94,4.01-1.96,5.72-3.05l-71.85-.73Zm184.14-2.05c-.63-1.53-2.17-2.86-4.56-4.01-2.39-1.15-5.46-2.11-9.17-2.89-3.71-.78-8.04-1.36-13-1.74-4.93-.38-10.37-.56-16.34-.53-5.29.03-9.88.26-13.69.71-3.81.45-7.12,1.05-9.95,1.81-2.8.75-5.2,1.64-7.14,2.64-1.97,1.01-3.8,2.08-5.48,3.23l79.32.79Z"/>
              <path class="cls-18" d="m474.38,2733.55c-110.38,0-225.31,9.71-243.7,28.52.72.66,1.39,1.37,2.01,2.12,15.5-13.06,110.4-26.2,241.69-26.2s231.08,13.83,242.77,27.21c.57-.73,1.19-1.44,1.85-2.1-15.18-19.47-132.27-29.54-244.62-29.54Z"/>
            </g>
            <g>
              <path class="cls-9" d="m286.17,2704.69v54.91c0,17.74,110.84,32.13,247.56,32.13s247.56-14.38,247.56-32.13v-54.91h-495.12Z"/>
              <path class="cls-11" d="m781.29,2704.69c0,17.74-110.84,32.13-247.56,32.13s-247.56-14.38-247.56-32.13,110.84-32.13,247.56-32.13,247.56,14.38,247.56,32.13Z"/>
              <path class="cls-12" d="m533.73,2739.03c-121.09,0-247.7-11.56-247.7-33.87,0-1.23.44-3.38,1.66-3.38s.7,1.68.7,2.91c0,14.15,100.76,29.91,245.34,29.91s245.34-15.76,245.34-29.91c0-1.22.21-2.37,1.43-2.37s.93,1.63.93,2.86c0,22.31-126.62,33.85-247.71,33.85Z"/>
              <path class="cls-74" d="m510.34,2706.48c2.43-1.68,5.01-3.34,7.78-4.98,2.74-1.64,6.31-3.11,10.64-4.43,4.35-1.32,9.79-2.39,16.32-3.23,6.53-.83,14.69-1.27,24.44-1.32,9.57-.05,18.54.26,26.94.91,8.38.65,15.77,1.63,22.16,2.93,6.36,1.3,11.55,2.91,15.56,4.83,3.98,1.92,6.35,4.11,7.11,6.59l27.87.28c2.02.01,3.81.18,5.34.49,1.56.32,2.31.72,2.31,1.21v2.29s-35.82-.34-35.82-.34c-1.26,2.81-4.46,5.38-9.61,7.71-5.12,2.33-11.67,4.35-19.65,6.06l-13.05-1.82c-1.17-.18-2.13-.4-2.88-.68-.75-.27-1.12-.57-1.12-.9,0-.44,1.01-.94,3.03-1.51,2.02-.57,4.3-1.27,6.83-2.11,2.54-.83,5.02-1.82,7.48-2.96,2.43-1.14,4.06-2.49,4.91-4.07l-84.58-.84c-2.22,1.64-4.73,3.24-7.47,4.82-2.77,1.58-6.42,3-10.97,4.26-4.56,1.26-10.23,2.29-17.02,3.07-6.82.79-15.34,1.2-25.66,1.26-7.75.04-15.3-.26-22.69-.88-7.39-.63-13.96-1.56-19.69-2.81-5.74-1.25-10.44-2.79-14.13-4.63-3.66-1.84-5.72-3.95-6.15-6.33l-22.95-.24c-2.02-.01-3.81-.17-5.42-.48-1.58-.31-2.39-.71-2.39-1.22v-2.29s31.36.3,31.36.3c1.39-2.42,4.23-4.53,8.58-6.32,4.35-1.8,9.65-3.39,15.92-4.79l10.51,1.44c3.19.45,4.78.97,4.78,1.57,0,.33-.64.73-1.96,1.21-1.35.48-2.9,1.06-4.71,1.73-1.79.67-3.54,1.46-5.23,2.36-1.71.9-2.97,1.92-3.82,3.06l77.12.77Zm-77.41,3.13c.63,1.51,2.04,2.8,4.17,3.89,2.13,1.09,4.78,1.99,7.97,2.69,3.19.7,6.77,1.22,10.74,1.55,4,.33,8.17.48,12.53.46,5.08-.03,9.51-.25,13.3-.66,3.76-.41,7.07-.97,9.95-1.68,2.85-.71,5.36-1.53,7.48-2.47,2.12-.94,4.01-1.96,5.71-3.05l-71.85-.73Zm184.13-2.05c-.63-1.53-2.17-2.86-4.56-4.01-2.39-1.15-5.46-2.11-9.17-2.89-3.71-.78-8.04-1.36-13-1.74-4.93-.38-10.37-.56-16.34-.53-5.29.03-9.88.26-13.69.71-3.81.45-7.12,1.05-9.95,1.81-2.8.75-5.2,1.64-7.14,2.64-1.97,1.01-3.8,2.08-5.48,3.23l79.32.79Z"/>
              <path class="cls-10" d="m533.77,2676.04c-110.38,0-225.31,9.71-243.7,28.52.72.66,1.39,1.37,2.01,2.12,15.5-13.06,110.4-26.2,241.69-26.2s231.09,13.83,242.77,27.21c.57-.73,1.19-1.44,1.85-2.1-15.18-19.47-132.27-29.54-244.62-29.54Z"/>
            </g>
            <g>
              <path class="cls-8" d="m322.21,2647.01v54.91c0,17.74,110.83,32.13,247.56,32.13s247.56-14.38,247.56-32.13v-54.91h-495.12Z"/>
              <ellipse class="cls-15" cx="569.77" cy="2647.01" rx="247.56" ry="32.13"/>
              <path class="cls-17" d="m569.77,2681.35c-121.08,0-247.7-11.57-247.7-33.87,0-1.23.44-3.38,1.66-3.38s.7,1.68.7,2.91c0,14.15,100.76,29.91,245.34,29.91s245.34-15.76,245.34-29.91c0-1.23.21-2.37,1.43-2.37s.93,1.63.93,2.86c0,22.31-126.62,33.85-247.71,33.85Z"/>
              <path class="cls-74" d="m546.37,2648.8c2.43-1.68,5.01-3.34,7.78-4.98,2.74-1.63,6.31-3.11,10.63-4.43,4.35-1.32,9.79-2.39,16.32-3.23,6.53-.83,14.7-1.27,24.44-1.32,9.57-.05,18.54.26,26.94.91,8.38.65,15.77,1.63,22.16,2.93,6.36,1.3,11.55,2.91,15.55,4.83,3.98,1.92,6.35,4.11,7.11,6.59l27.87.28c2.02.01,3.81.18,5.34.5,1.56.32,2.31.72,2.31,1.21v2.3s-35.82-.34-35.82-.34c-1.26,2.81-4.46,5.38-9.61,7.71-5.12,2.33-11.67,4.35-19.65,6.06l-13.05-1.82c-1.17-.18-2.13-.41-2.88-.68-.75-.27-1.12-.57-1.12-.9,0-.44,1.01-.94,3.03-1.51,2.02-.57,4.3-1.27,6.83-2.11,2.54-.83,5.02-1.82,7.48-2.96,2.43-1.14,4.06-2.49,4.91-4.07l-84.58-.84c-2.22,1.64-4.73,3.24-7.47,4.82-2.77,1.58-6.42,3-10.97,4.26-4.56,1.26-10.23,2.29-17.02,3.08-6.82.79-15.34,1.2-25.66,1.26-7.75.04-15.3-.26-22.69-.88-7.39-.63-13.96-1.56-19.69-2.81-5.74-1.25-10.44-2.79-14.13-4.63-3.66-1.84-5.72-3.95-6.15-6.33l-22.95-.24c-2.02-.01-3.81-.17-5.42-.48-1.58-.31-2.39-.71-2.39-1.22v-2.29s31.36.3,31.36.3c1.39-2.42,4.23-4.53,8.58-6.32,4.35-1.8,9.65-3.39,15.92-4.79l10.51,1.44c3.19.45,4.78.97,4.78,1.58,0,.33-.65.73-1.96,1.21-1.35.48-2.9,1.06-4.71,1.73-1.79.67-3.55,1.46-5.23,2.36-1.71.9-2.97,1.92-3.82,3.06l77.11.77Zm-77.41,3.13c.63,1.51,2.04,2.8,4.17,3.89,2.13,1.09,4.78,1.99,7.97,2.69,3.19.7,6.77,1.22,10.74,1.55,3.99.33,8.17.48,12.53.46,5.08-.02,9.51-.25,13.3-.66,3.76-.41,7.07-.97,9.95-1.68,2.85-.71,5.36-1.53,7.48-2.47,2.12-.94,4.01-1.96,5.72-3.05l-71.85-.73Zm184.14-2.05c-.63-1.53-2.17-2.86-4.56-4.01-2.39-1.15-5.46-2.11-9.17-2.89-3.71-.78-8.04-1.36-13-1.74-4.93-.38-10.37-.56-16.34-.53-5.29.03-9.88.26-13.69.71-3.81.45-7.13,1.05-9.95,1.81-2.8.76-5.2,1.64-7.14,2.64-1.97,1.01-3.8,2.08-5.48,3.23l79.32.79Z"/>
              <path class="cls-13" d="m569.8,2618.36c-110.38,0-225.31,9.71-243.7,28.52.72.66,1.39,1.37,2.01,2.12,15.5-13.06,110.4-26.2,241.69-26.2s231.08,13.83,242.76,27.21c.57-.73,1.19-1.44,1.85-2.1-15.18-19.47-132.27-29.54-244.62-29.54Z"/>
            </g>
            <g>
              <path class="cls-16" d="m295.61,2584.79v54.91c0,17.74,110.84,32.13,247.56,32.13s247.56-14.38,247.56-32.13v-54.91h-495.12Z"/>
              <path class="cls-7" d="m790.73,2584.79c0,17.74-110.84,32.13-247.56,32.13s-247.56-14.38-247.56-32.13,110.84-32.13,247.56-32.13,247.56,14.38,247.56,32.13Z"/>
              <path class="cls-14" d="m543.17,2619.13c-121.09,0-247.7-11.57-247.7-33.87,0-1.23.44-3.38,1.66-3.38s.7,1.68.7,2.91c0,14.15,100.76,29.91,245.34,29.91s245.34-15.76,245.34-29.91c0-1.23.21-2.37,1.43-2.37s.93,1.63.93,2.86c0,22.31-126.62,33.85-247.71,33.85Z"/>
              <path class="cls-74" d="m519.78,2586.58c2.43-1.68,5.01-3.34,7.78-4.98,2.74-1.64,6.31-3.11,10.63-4.43,4.35-1.32,9.79-2.39,16.32-3.23,6.53-.83,14.7-1.27,24.44-1.32,9.57-.05,18.54.26,26.94.91,8.38.65,15.77,1.63,22.16,2.93,6.36,1.3,11.55,2.91,15.56,4.83,3.98,1.92,6.35,4.11,7.11,6.59l27.87.28c2.02.01,3.81.18,5.34.49,1.56.32,2.31.72,2.31,1.21v2.29s-35.82-.34-35.82-.34c-1.26,2.81-4.46,5.38-9.61,7.71-5.12,2.33-11.67,4.35-19.65,6.06l-13.05-1.82c-1.17-.18-2.13-.41-2.88-.68-.75-.27-1.12-.57-1.12-.9,0-.44,1.01-.94,3.03-1.51,2.02-.57,4.3-1.27,6.83-2.11,2.54-.83,5.02-1.82,7.48-2.96,2.43-1.14,4.06-2.49,4.91-4.07l-84.58-.84c-2.22,1.64-4.73,3.24-7.47,4.82-2.77,1.58-6.42,3-10.97,4.26-4.56,1.26-10.23,2.29-17.02,3.07-6.82.79-15.34,1.2-25.66,1.26-7.75.04-15.3-.26-22.69-.88-7.39-.63-13.96-1.56-19.69-2.81-5.74-1.25-10.44-2.79-14.13-4.63-3.66-1.84-5.72-3.95-6.15-6.33l-22.95-.24c-2.02-.01-3.81-.17-5.42-.48-1.58-.31-2.39-.71-2.39-1.22v-2.3s31.36.3,31.36.3c1.39-2.42,4.23-4.53,8.58-6.32,4.35-1.8,9.65-3.39,15.92-4.79l10.51,1.44c3.19.45,4.78.97,4.78,1.58,0,.33-.64.73-1.96,1.21-1.35.48-2.9,1.06-4.71,1.73-1.79.67-3.55,1.46-5.23,2.36-1.71.9-2.97,1.92-3.82,3.06l77.12.77Zm-77.41,3.13c.63,1.51,2.04,2.8,4.17,3.89,2.13,1.09,4.78,1.99,7.97,2.69,3.19.7,6.77,1.22,10.74,1.55,3.99.33,8.17.48,12.53.46,5.08-.02,9.51-.25,13.3-.66,3.76-.41,7.07-.97,9.95-1.68,2.85-.71,5.36-1.53,7.48-2.47,2.12-.94,4.01-1.96,5.71-3.05l-71.85-.73Zm184.14-2.05c-.63-1.53-2.17-2.86-4.56-4.01-2.39-1.15-5.46-2.11-9.17-2.89-3.71-.78-8.04-1.36-13-1.74-4.93-.38-10.37-.56-16.34-.53-5.29.03-9.88.26-13.69.71-3.81.45-7.13,1.05-9.95,1.81-2.8.76-5.2,1.64-7.14,2.64-1.97,1.01-3.8,2.08-5.48,3.23l79.32.79Z"/>
              <path class="cls-43" d="m543.2,2556.14c-110.38,0-225.31,9.71-243.7,28.52.72.66,1.39,1.37,2.01,2.12,15.5-13.06,110.4-26.2,241.69-26.2s231.08,13.83,242.76,27.21c.57-.73,1.19-1.44,1.85-2.1-15.18-19.47-132.27-29.54-244.62-29.54Z"/>
            </g>
            <g>
              <path class="cls-44" d="m226.79,2527.11v54.91c0,17.74,110.84,32.13,247.56,32.13s247.56-14.38,247.56-32.13v-54.91H226.79Z"/>
              <ellipse class="cls-41" cx="474.35" cy="2527.11" rx="247.56" ry="32.13"/>
              <path class="cls-42" d="m474.35,2561.45c-121.08,0-247.7-11.57-247.7-33.87,0-1.23.44-3.38,1.66-3.38s.7,1.68.7,2.91c0,14.15,100.76,29.91,245.34,29.91s245.34-15.76,245.34-29.91c0-1.23.21-2.37,1.43-2.37s.93,1.63.93,2.86c0,22.31-126.62,33.85-247.71,33.85Z"/>
              <path class="cls-74" d="m450.96,2528.9c2.43-1.68,5.01-3.34,7.78-4.98,2.74-1.64,6.31-3.11,10.63-4.43,4.35-1.32,9.79-2.39,16.32-3.23,6.53-.83,14.7-1.27,24.44-1.32,9.57-.05,18.54.26,26.94.91,8.38.65,15.77,1.63,22.16,2.93,6.36,1.3,11.55,2.91,15.56,4.83,3.98,1.92,6.35,4.11,7.11,6.59l27.87.28c2.02.01,3.81.18,5.34.49,1.56.32,2.31.72,2.31,1.21v2.3s-35.82-.35-35.82-.35c-1.26,2.81-4.46,5.38-9.61,7.71-5.12,2.33-11.67,4.35-19.65,6.06l-13.05-1.82c-1.17-.18-2.13-.4-2.88-.68-.75-.27-1.12-.57-1.12-.9,0-.44,1.01-.95,3.03-1.51,2.02-.57,4.3-1.27,6.83-2.11,2.54-.83,5.02-1.82,7.48-2.96,2.43-1.14,4.06-2.49,4.91-4.07l-84.58-.84c-2.22,1.64-4.73,3.24-7.47,4.82-2.77,1.58-6.41,3-10.97,4.26-4.56,1.26-10.23,2.29-17.02,3.07-6.81.79-15.34,1.21-25.66,1.26-7.75.04-15.3-.26-22.69-.88-7.39-.63-13.96-1.56-19.69-2.81-5.74-1.25-10.44-2.79-14.13-4.63-3.66-1.84-5.72-3.95-6.15-6.34l-22.95-.24c-2.02-.01-3.81-.17-5.42-.48-1.58-.31-2.39-.71-2.39-1.22v-2.3s31.36.3,31.36.3c1.39-2.42,4.23-4.53,8.58-6.32,4.35-1.8,9.65-3.39,15.92-4.79l10.51,1.44c3.19.45,4.78.97,4.78,1.58,0,.33-.64.73-1.96,1.21-1.35.48-2.9,1.06-4.71,1.73-1.79.67-3.54,1.45-5.23,2.36-1.71.9-2.97,1.92-3.82,3.06l77.12.77Zm-77.41,3.13c.63,1.51,2.04,2.8,4.17,3.89,2.13,1.09,4.78,1.99,7.97,2.69,3.19.7,6.77,1.22,10.74,1.55,3.99.33,8.17.48,12.53.46,5.08-.02,9.51-.24,13.3-.66,3.76-.41,7.07-.97,9.95-1.68,2.85-.71,5.36-1.53,7.48-2.47,2.12-.94,4.01-1.96,5.72-3.05l-71.85-.73Zm184.14-2.05c-.63-1.52-2.17-2.86-4.56-4.01-2.39-1.15-5.46-2.11-9.17-2.89-3.71-.78-8.04-1.36-13-1.75-4.93-.38-10.37-.56-16.34-.53-5.29.03-9.88.26-13.69.71-3.81.45-7.12,1.05-9.95,1.81-2.8.76-5.2,1.64-7.14,2.64-1.97,1.01-3.8,2.08-5.48,3.23l79.32.79Z"/>
              <path class="cls-37" d="m474.38,2498.46c-110.38,0-225.31,9.71-243.7,28.52.72.66,1.39,1.37,2.01,2.12,15.5-13.06,110.4-26.2,241.69-26.2s231.08,13.83,242.77,27.2c.57-.73,1.19-1.44,1.85-2.1-15.18-19.47-132.27-29.54-244.62-29.54Z"/>
            </g>
            <g>
              <path class="cls-35" d="m286.17,2469.6v54.91c0,17.74,110.84,32.13,247.56,32.13s247.56-14.38,247.56-32.13v-54.91h-495.12Z"/>
              <ellipse class="cls-36" cx="533.73" cy="2469.6" rx="247.56" ry="32.13"/>
              <path class="cls-40" d="m533.73,2503.95c-121.09,0-247.7-11.57-247.7-33.87,0-1.23.44-3.38,1.66-3.38s.7,1.68.7,2.91c0,14.15,100.76,29.91,245.34,29.91s245.34-15.76,245.34-29.91c0-1.23.21-2.37,1.43-2.37s.93,1.63.93,2.86c0,22.31-126.62,33.85-247.71,33.85Z"/>
              <path class="cls-74" d="m510.34,2471.39c2.43-1.68,5.01-3.34,7.78-4.98,2.74-1.63,6.31-3.11,10.64-4.43,4.35-1.32,9.79-2.39,16.32-3.23,6.53-.83,14.69-1.27,24.44-1.32,9.57-.05,18.54.26,26.94.91,8.38.65,15.77,1.63,22.16,2.93,6.36,1.3,11.55,2.91,15.56,4.83,3.98,1.92,6.35,4.11,7.11,6.59l27.87.28c2.02.01,3.81.18,5.34.49,1.56.32,2.31.72,2.31,1.21v2.29s-35.82-.35-35.82-.35c-1.26,2.81-4.46,5.38-9.61,7.71-5.12,2.33-11.67,4.35-19.65,6.06l-13.05-1.82c-1.17-.18-2.13-.41-2.88-.68-.75-.27-1.12-.57-1.12-.9,0-.44,1.01-.94,3.03-1.51,2.02-.57,4.3-1.27,6.83-2.11,2.54-.83,5.02-1.82,7.48-2.96,2.43-1.14,4.06-2.49,4.91-4.07l-84.58-.84c-2.22,1.64-4.73,3.24-7.47,4.82-2.77,1.58-6.42,3-10.97,4.26-4.56,1.26-10.23,2.29-17.02,3.07-6.82.79-15.34,1.21-25.66,1.26-7.75.04-15.3-.26-22.69-.88-7.39-.63-13.96-1.56-19.69-2.81-5.74-1.25-10.44-2.79-14.13-4.63-3.66-1.84-5.72-3.95-6.15-6.34l-22.95-.24c-2.02-.01-3.81-.17-5.42-.48-1.58-.31-2.39-.71-2.39-1.22v-2.3s31.36.3,31.36.3c1.39-2.42,4.23-4.53,8.58-6.32,4.35-1.8,9.65-3.39,15.92-4.79l10.51,1.44c3.19.45,4.78.97,4.78,1.58,0,.32-.64.73-1.96,1.21-1.35.48-2.9,1.06-4.71,1.73-1.79.67-3.54,1.46-5.23,2.36-1.71.9-2.97,1.92-3.82,3.06l77.12.77Zm-77.41,3.13c.63,1.51,2.04,2.8,4.17,3.89,2.13,1.09,4.78,1.99,7.97,2.69,3.19.7,6.77,1.22,10.74,1.55,4,.33,8.17.48,12.53.46,5.08-.02,9.51-.24,13.3-.66,3.76-.41,7.07-.97,9.95-1.68,2.85-.71,5.36-1.53,7.48-2.47,2.12-.94,4.01-1.96,5.71-3.05l-71.85-.73Zm184.13-2.05c-.63-1.52-2.17-2.86-4.56-4.01-2.39-1.15-5.46-2.11-9.17-2.89-3.71-.78-8.04-1.36-13-1.75-4.93-.38-10.37-.56-16.34-.53-5.29.03-9.88.26-13.69.71-3.81.45-7.12,1.05-9.95,1.81-2.8.76-5.2,1.64-7.14,2.64-1.97,1.01-3.8,2.08-5.48,3.23l79.32.79Z"/>
              <path class="cls-38" d="m533.77,2440.95c-110.38,0-225.31,9.71-243.7,28.52.72.66,1.39,1.37,2.01,2.12,15.5-13.05,110.4-26.2,241.69-26.2s231.09,13.83,242.77,27.2c.57-.73,1.19-1.44,1.85-2.1-15.18-19.47-132.27-29.54-244.62-29.54Z"/>
            </g>
            <g>
              <path class="cls-39" d="m255.29,2411.93v54.91c0,17.74,110.84,32.13,247.56,32.13s247.56-14.38,247.56-32.13v-54.91H255.29Z"/>
              <ellipse class="cls-53" cx="502.85" cy="2411.93" rx="247.56" ry="32.13"/>
              <path class="cls-51" d="m502.85,2446.27c-121.08,0-247.7-11.57-247.7-33.87,0-1.23.44-3.38,1.66-3.38s.7,1.68.7,2.91c0,14.15,100.76,29.91,245.34,29.91s245.34-15.76,245.34-29.91c0-1.23.21-2.37,1.43-2.37s.93,1.64.93,2.86c0,22.31-126.62,33.85-247.71,33.85Z"/>
              <path class="cls-74" d="m479.45,2413.72c2.43-1.68,5.01-3.34,7.78-4.98,2.74-1.64,6.31-3.11,10.63-4.43,4.35-1.32,9.79-2.39,16.32-3.23,6.53-.83,14.7-1.27,24.44-1.32,9.57-.05,18.54.26,26.94.91,8.38.65,15.77,1.63,22.16,2.93,6.36,1.3,11.55,2.91,15.56,4.83,3.98,1.92,6.35,4.11,7.11,6.59l27.87.28c2.02.01,3.81.18,5.34.49,1.56.32,2.31.72,2.31,1.21v2.29s-35.82-.34-35.82-.34c-1.26,2.81-4.46,5.38-9.61,7.71-5.12,2.33-11.67,4.35-19.65,6.06l-13.05-1.82c-1.17-.18-2.13-.4-2.88-.68-.75-.27-1.12-.57-1.12-.9,0-.44,1.01-.94,3.03-1.51,2.02-.57,4.3-1.27,6.83-2.11,2.54-.83,5.02-1.82,7.48-2.96,2.43-1.14,4.06-2.49,4.91-4.07l-84.58-.84c-2.22,1.64-4.73,3.24-7.47,4.82-2.77,1.58-6.42,3-10.97,4.26-4.56,1.26-10.23,2.29-17.02,3.07-6.81.79-15.34,1.2-25.66,1.26-7.75.04-15.3-.26-22.69-.88-7.39-.63-13.96-1.56-19.69-2.81-5.74-1.25-10.44-2.79-14.13-4.63-3.66-1.84-5.72-3.95-6.15-6.33l-22.95-.24c-2.02-.01-3.81-.17-5.42-.48-1.58-.31-2.39-.71-2.39-1.22v-2.3s31.36.3,31.36.3c1.39-2.42,4.23-4.53,8.58-6.32,4.35-1.8,9.65-3.39,15.92-4.79l10.51,1.44c3.19.45,4.78.97,4.78,1.58,0,.33-.64.73-1.96,1.21-1.35.48-2.9,1.06-4.71,1.73-1.79.67-3.55,1.46-5.23,2.36-1.71.9-2.97,1.92-3.82,3.06l77.12.77Zm-77.41,3.13c.63,1.51,2.04,2.8,4.17,3.89,2.13,1.09,4.78,1.99,7.97,2.69,3.19.7,6.77,1.22,10.74,1.55,3.99.33,8.17.48,12.53.46,5.08-.02,9.51-.25,13.3-.66,3.76-.41,7.07-.97,9.95-1.68,2.85-.71,5.36-1.53,7.48-2.47,2.12-.94,4.01-1.96,5.72-3.05l-71.85-.73Zm184.14-2.05c-.63-1.52-2.17-2.86-4.56-4.01-2.39-1.15-5.46-2.11-9.17-2.89-3.71-.78-8.04-1.36-13-1.74-4.93-.38-10.37-.56-16.34-.53-5.29.03-9.88.26-13.69.71-3.81.45-7.13,1.05-9.95,1.81-2.8.76-5.2,1.64-7.14,2.64-1.97,1.01-3.8,2.08-5.48,3.23l79.32.79Z"/>
              <path class="cls-52" d="m502.88,2383.28c-110.38,0-225.31,9.71-243.7,28.52.72.66,1.39,1.37,2.01,2.12,15.5-13.06,110.4-26.2,241.69-26.2s231.09,13.83,242.77,27.2c.57-.73,1.19-1.44,1.85-2.1-15.18-19.47-132.27-29.54-244.62-29.54Z"/>
            </g>
            <g>
              <path class="cls-50" d="m820.82,2450.64l-44.75,31.83c-14.46,10.28,38.06,108.94,117.31,220.35,79.25,111.41,155.21,193.39,169.67,183.11l44.74-31.83-286.98-403.46Z"/>
              <path class="cls-54" d="m1107.81,2854.1c-14.46,10.28-90.42-71.7-169.67-183.11-79.25-111.41-131.77-210.07-117.31-220.35,14.46-10.28,90.42,71.7,169.67,183.11,79.25,111.41,131.77,210.07,117.31,220.35Z"/>
              <path class="cls-48" d="m936.33,2672.27c-70.18-98.67-134.15-208.55-115.97-221.48,1-.71,3.01-1.6,3.72-.6.71,1-.97,1.55-1.97,2.26-11.53,8.2,34.03,99.44,117.83,217.26,83.8,117.82,155.05,190.79,166.58,182.59,1-.71,2.05-1.2,2.77-.21.71,1-.79,1.71-1.79,2.41-18.18,12.93-100.98-83.56-171.16-182.23Z"/>
              <path class="cls-74" d="m949.3,2634.34c2.78,1,5.63,2.15,8.56,3.45,2.92,1.29,6.2,3.34,9.78,6.1,3.6,2.78,7.62,6.59,12.09,11.43,4.46,4.84,9.55,11.24,15.24,19.15,5.58,7.77,10.54,15.26,14.87,22.49,4.32,7.21,7.81,13.8,10.45,19.76,2.62,5.94,4.32,11.1,5.08,15.47.74,4.35.33,7.56-1.25,9.61l15.93,22.88c1.16,1.66,2.07,3.21,2.69,4.64.64,1.45.75,2.3.36,2.58l-1.86,1.34-20.49-29.4c-3.02.61-6.97-.51-11.85-3.36-4.87-2.82-10.31-6.99-16.33-12.5l-6.09-11.69c-.53-1.05-.9-1.97-1.11-2.74-.21-.77-.18-1.24.08-1.43.36-.26,1.35.27,2.98,1.59,1.63,1.32,3.53,2.77,5.68,4.35,2.15,1.58,4.39,3.04,6.74,4.38,2.33,1.32,4.38,1.86,6.16,1.64l-48.34-69.41c-2.62-.86-5.38-1.98-8.26-3.29-2.89-1.34-6.16-3.49-9.83-6.47-3.67-2.98-7.79-7.01-12.37-12.09-4.59-5.1-9.88-11.81-15.9-20.18-4.52-6.3-8.66-12.62-12.44-19-3.77-6.39-6.82-12.28-9.13-17.68-2.31-5.4-3.78-10.12-4.42-14.19-.63-4.05-.1-6.95,1.6-8.68l-13.11-18.84c-1.16-1.66-2.07-3.21-2.75-4.69-.67-1.47-.8-2.36-.39-2.66l1.86-1.34,17.94,25.74c2.77-.27,6.14.82,10.12,3.33,3.98,2.5,8.36,5.9,13.13,10.2l4.92,9.4c1.48,2.86,1.98,4.46,1.49,4.81-.26.19-.97-.1-2.12-.9-1.17-.82-2.54-1.75-4.14-2.84-1.58-1.07-3.24-2.05-4.95-2.89-1.72-.87-3.29-1.31-4.71-1.34l44.07,63.29Zm-47.42-61.27c-.86,1.39-1.1,3.28-.76,5.65.34,2.37,1.15,5.05,2.43,8.06,1.28,3.01,2.93,6.22,4.97,9.65,2.05,3.45,4.34,6.94,6.88,10.48,2.97,4.13,5.71,7.61,8.24,10.46,2.52,2.82,4.89,5.2,7.14,7.13,2.23,1.91,4.36,3.48,6.35,4.66,1.99,1.18,3.92,2.13,5.8,2.89l-41.06-58.97Zm108.4,148.86c.88-1.4,1.08-3.42.63-6.04-.45-2.61-1.44-5.67-2.96-9.15-1.51-3.48-3.55-7.35-6.11-11.6-2.55-4.24-5.56-8.78-9.04-13.62-3.09-4.29-5.94-7.9-8.51-10.74-2.57-2.84-4.98-5.2-7.24-7.06-2.24-1.84-4.35-3.29-6.29-4.29-1.96-1.02-3.9-1.89-5.81-2.6l45.33,65.09Z"/>
              <path class="cls-49" d="m987.68,2635.79c-63.98-89.95-138.51-177.97-164.49-182.06-.12.97-.31,1.93-.56,2.86,19.62,5.06,85.34,74.78,161.44,181.76,78.05,109.73,122.67,196.32,118.54,213.59.93.04,1.86.14,2.78.29,7.06-23.66-52.6-124.91-117.71-216.46Z"/>
            </g>
          </g>
          <g>
            <path class="cls-46" d="m2268.41,2744.1l-22.4,1.76c-5.82.46-11.64.23-17.39-.73l-88.85-14.48-1.45-.23-103.25-16.85-.64-.04-80.91-13.1v-455.24l81.4-.05h.15l103.25,5.14,1.53.77,124.89,4.81,3.68,488.23Z"/>
            <path class="cls-47" d="m2582.6,2274.19v424.9c0,15.2-11.68,27.62-26.78,28.52l-296.33,17.63c-11.99.71-22.21-9.24-22.21-21.6v-442.67c0-12.37,9.7-22.62,21.73-22.95l298.47-8.32c13.84-.39,25.14,10.6,25.14,24.49Z"/>
            <polygon class="cls-45" points="1954.16 2245.22 2237.27 2258.62 2557.46 2249.7 2229.19 2239 1954.16 2245.22"/>
            <path class="cls-4" d="m2557.04,2249.71l-233.75,6.51c-13.3.37-24.15,11.59-24.14,25.17.02,22.67,3.81,46.11,13.79,68.71,33.27,75.37,107.66,78.15,123.13,147.33,12.89,57.64-32.77,82.44-37.59,156.1-1.27,19.35.41,40.17,6.17,62.48,3.03,11.75,13.95,19.75,25.86,19.04l128.69-7.65c13.2-.79,23.41-11.64,23.41-24.92v-427.88c0-14.12-11.48-25.29-25.56-24.9Z"/>
            <polygon class="cls-55" points="2341.14 2740.38 2451 2733.84 2451 2252.66 2341.14 2255.73 2341.14 2740.38"/>
            <polygon class="cls-56" points="2346.08 2740.09 2451 2733.84 2451 2252.66 2346.08 2255.59 2346.08 2740.09"/>
            <polygon class="cls-61" points="2136.84 2251.76 2136.84 2730.66 2036.2 2713.58 2036.2 2249.04 2068.25 2248.43 2136.84 2251.76"/>
            <polygon class="cls-63" points="2147.16 2240.86 2453.44 2258.27 2343.33 2258.27 2075.55 2242.47 2147.16 2240.86"/>
            <g>
              <path class="cls-57" d="m2296.2,2226.15c7.13-43.69,12.34-75.62,40.87-105.11,12.03-12.43,25.17-26.01,46.71-29.61,24.78-4.14,56.4,5.62,65.07,25.86,8.23,19.21-11.15,31.73-2.92,53.8,8.28,22.18,32.39,21.71,35.04,39.62,2.24,15.17-12.57,32.39-27.53,40.46-25.82,13.93-40.49-5.67-90.93-2.5-34.76,2.18-54.82,13.19-64.23,2.09-4.48-5.28-4.04-12.62-2.09-24.61Z"/>
              <g class="cls-78">
                <path class="cls-60" d="m2434.25,2209.05c-31.14-11.91-47.1-37.83-60.9-31.7-12.26,5.45-4.78,28.2-19.19,46.71-13.16,16.91-37.29,20.93-58.73,20.95.54,2.16,1.42,4.08,2.84,5.75,9.41,11.1,29.47.1,64.23-2.09,50.44-3.17,65.1,16.44,90.93,2.5,13.72-7.4,27.28-22.5,27.7-36.66-14.55,1.56-30.74.71-46.89-5.46Z"/>
              </g>
            </g>
            <g>
              <path class="cls-58" d="m2108.09,2118.13c20.95-16.53,43.03,1.9,68.82-16.27,26.12-18.41,18.53-47.93,38.79-56.31,23.53-9.73,58.4,19.95,75.08,38.79,42.37,47.84,62.27,132.78,28.78,162.67-12.57,11.22-48.16,6.59-118.84-3.11-80.78-11.09-92.41-19.03-100.14-29.43-20.83-28.01-16.21-77.63,7.51-96.35Z"/>
              <g class="cls-78">
                <path class="cls-59" d="m2240.72,2154c-11.64-3.67-16.95,9.65-40.87,15.02-4.39.98-46.59,9.8-69.24-16.68-8.99-10.51-13.2-24.64-12.71-39.62-3.3,1.15-6.57,2.87-9.81,5.42-23.72,18.72-28.34,68.34-7.51,96.35,7.73,10.4,19.36,18.34,100.14,29.43,70.67,9.7,106.27,14.32,118.84,3.11,1.69-1.51,3.21-3.19,4.63-4.97-16.96-.56-34.74-4.66-47.59-17.14-24.78-24.07-16.08-64.66-35.87-70.91Z"/>
              </g>
            </g>
            <polygon class="cls-62" points="2245.74 2249.88 2138.32 2253.94 2034.92 2249.04 2068.35 2248.43 2214.72 2245.82 2245.74 2249.88"/>
          </g>
        </g>
      </g>
    </g>
  </g>
</svg>