<?xml version="1.0" encoding="UTF-8"?>
<svg id="Layer_2" data-name="Layer 2" xmlns="http://www.w3.org/2000/svg" viewBox="0 0 452.32 383.06">
  <defs>
    <style>
      .cls-1, .cls-2, .cls-3, .cls-4, .cls-5, .cls-6, .cls-7, .cls-8, .cls-9 {
        fill: none;
        stroke-linecap: round;
        stroke-linejoin: round;
      }

      .cls-1, .cls-8 {
        stroke: #fff;
      }

      .cls-2, .cls-3, .cls-5, .cls-7, .cls-9 {
        stroke: #262626;
      }

      .cls-3 {
        stroke-width: .27px;
      }

      .cls-4 {
        stroke: #3897e9;
      }

      .cls-4, .cls-5 {
        stroke-width: .73px;
      }

      .cls-10 {
        fill: #dcf0ff;
        opacity: .2;
      }

      .cls-10, .cls-11, .cls-12, .cls-13, .cls-14, .cls-15, .cls-16, .cls-17, .cls-18, .cls-19, .cls-20, .cls-21, .cls-22, .cls-23, .cls-24, .cls-25, .cls-26, .cls-27 {
        stroke-width: 0px;
      }

      .cls-6 {
        stroke: #d6d6d6;
        stroke-width: .47px;
      }

      .cls-11, .cls-12 {
        opacity: .5;
      }

      .cls-11, .cls-26 {
        fill: #f5f5f5;
      }

      .cls-12, .cls-24 {
        fill: #fff;
      }

      .cls-7 {
        stroke-width: .25px;
      }

      .cls-8, .cls-9 {
        stroke-width: .41px;
      }

      .cls-13 {
        fill: #f7a99c;
      }

      .cls-14 {
        fill: #262626;
      }

      .cls-15 {
        fill: #3897e9;
      }

      .cls-16 {
        fill: #4450e4;
      }

      .cls-17 {
        fill: #3748c4;
      }

      .cls-18 {
        fill: #1775af;
      }

      .cls-19 {
        fill: #d6d6d6;
      }

      .cls-20 {
        fill: #fdb6d6;
      }

      .cls-21 {
        fill: #ff92c9;
      }

      .cls-22 {
        fill: #ff7129;
      }

      .cls-23 {
        fill: #ff7769;
      }

      .cls-25 {
        fill: #ffc001;
      }

      .cls-27 {
        fill: #ffdeef;
      }
    </style>
  </defs>
  <g id="OBJECT">
    <ellipse class="cls-11" cx="231" cy="352.37" rx="221.32" ry="30.69"/>
    <g>
      <path class="cls-26" d="m191.18,297.26c.04-3.15-.08-7.52-.83-12.65-.63-4.32-2.66-18.12-9.94-28.56-11-15.77-23.47-8.74-36.25-25.04-7.32-9.33-5.26-14.22-13.62-21.68-7.39-6.6-15.32-9.03-23.78-10.42-21.39-3.52-56.29-.22-56.29-.22,2.95,33.82,14.32,47.81,24.13,54.33,13.77,9.16,24.36,3.55,36.64,14.51,15.98,14.27,5.49,30.44,20.39,45.29,0,0,6.52,6.5,57.15,16.12h0l2.41-31.7Z"/>
      <path class="cls-6" d="m188.77,328.95s-39.11-66.56-54-79.6-84.3-50.65-84.3-50.65"/>
      <line class="cls-6" x1="100.69" y1="227.09" x2="57.01" y2="229.53"/>
      <line class="cls-6" x1="109.71" y1="232.49" x2="112.61" y2="200.1"/>
      <line class="cls-6" x1="129.58" y1="245.33" x2="91.77" y2="259.3"/>
      <line class="cls-6" x1="145.57" y1="261.93" x2="150.44" y2="237.37"/>
      <line class="cls-6" x1="157.77" y1="279.33" x2="121.15" y2="286.02"/>
      <line class="cls-6" x1="167.33" y1="294" x2="181.11" y2="257.09"/>
      <line class="cls-6" x1="176.02" y1="307.87" x2="133.66" y2="314.12"/>
    </g>
    <g>
      <path class="cls-26" d="m167.93,302.47c-1.16-2.93-2.95-6.92-5.61-11.37-2.24-3.75-9.38-15.73-20.1-22.59-16.19-10.36-25.03.9-43.07-9.28-10.33-5.82-10.29-11.13-20.88-14.83-9.35-3.27-17.61-2.48-25.95-.54C31.22,248.79.23,265.18.23,265.18c15.65,30.13,31.5,38.71,43.06,40.99,16.23,3.2,23.87-6.03,39.4-.59,20.22,7.08,16.71,26.03,36.15,34.06,0,0,8.51,3.51,58.97-6.94h0l-9.89-30.21Z"/>
      <path class="cls-6" d="m177.82,332.68s-61.58-46.56-80.33-52.92c-18.75-6.36-97.25-14.59-97.25-14.59"/>
      <line class="cls-6" x1="57.49" y1="272.21" x2="18.06" y2="291.17"/>
      <line class="cls-6" x1="67.89" y1="273.76" x2="58.19" y2="242.71"/>
      <line class="cls-6" x1="91.15" y1="278.03" x2="61.55" y2="305.39"/>
      <line class="cls-6" x1="112.28" y1="287.26" x2="107.39" y2="262.7"/>
      <line class="cls-6" x1="130.21" y1="298.67" x2="98.92" y2="318.85"/>
      <line class="cls-6" x1="144.64" y1="308.58" x2="143.27" y2="269.2"/>
      <line class="cls-6" x1="157.98" y1="318.07" x2="121.22" y2="340.03"/>
    </g>
    <polygon class="cls-21" points="310.41 333.19 177.07 333.19 189.91 245.02 297.57 245.02 310.41 333.19"/>
    <rect class="cls-20" x="62.7" y="21.17" width="362.07" height="239.39" rx="15.25" ry="15.25"/>
    <rect class="cls-27" x="71.49" y="28.38" width="344.5" height="207.07" rx="15.25" ry="15.25"/>
    <path class="cls-20" d="m338.67,339.61h-189.86v-9.17c0-7.09,5.75-12.84,12.84-12.84h164.18c7.09,0,12.84,5.75,12.84,12.84v9.17Z"/>
    <line class="cls-2" x1="82.72" y1="235.45" x2="398.39" y2="235.45"/>
    <path class="cls-2" d="m157.17,335.02v-4.82c0-2.91,2.36-5.27,5.27-5.27h142.39"/>
    <line class="cls-2" x1="289.7" y1="267.61" x2="294.75" y2="306.13"/>
    <circle class="cls-24" cx="240.56" cy="248.78" r="7.39"/>
    <path class="cls-1" d="m345.65,42.44h39.21c7.47,0,13.53,6.06,13.53,13.53v81.47"/>
    <path class="cls-15" d="m375.57,68.24c2.26-5.45,4.5-9.66,6.72-12.64,2.21-2.98,5.1-5.36,8.65-7.13,2.08-1.09,4.24-1.86,6.5-2.34,2.25-.47,4.4-1.07,6.43-1.79,2.03-.72,3.9-1.71,5.61-2.95,1.71-1.24,3.12-3.2,4.23-5.88,1.88-4.52,1.95-8.21.2-11.04-1.75-2.84-4.33-4.97-7.74-6.39-4.9-2.04-8.83-2.07-11.81-.12-2.98,1.96-5.66,5.15-8.04,9.57l-17.87-7.43c1.88-4.52,4.33-8.33,7.34-11.41,3.01-3.08,6.42-5.35,10.22-6.8,3.8-1.45,7.9-2.08,12.31-1.87,4.41.21,8.92,1.27,13.54,3.19,9.97,4.15,17,9.45,21.09,15.91,4.08,6.46,4.22,14.27.42,23.41-1.23,2.96-2.6,5.42-4.13,7.38-1.52,1.97-3.26,3.6-5.21,4.9-1.95,1.3-4.13,2.37-6.53,3.21-2.41.84-5.06,1.63-7.97,2.37-2.69.73-4.93,1.5-6.73,2.32-1.8.82-3.34,1.84-4.6,3.04-1.26,1.21-2.32,2.58-3.18,4.12-.86,1.54-1.71,3.33-2.55,5.36l-16.9-7.03Zm-11.67,26.51l7.54-18.15,18.7,7.77-7.54,18.15-18.7-7.77Z"/>
    <path class="cls-26" d="m266.6,95.48v-14.82c0-4.86-3.94-8.8-8.8-8.8h-86.03c-4.86,0-8.8,3.94-8.8,8.8v113.55c0,4.86,3.94,8.8,8.8,8.8h137.57c4.86,0,8.8-3.94,8.8-8.8v-89.93c0-4.86-3.94-8.8-8.8-8.8h-42.74Z"/>
    <polygon class="cls-19" points="257.89 116.18 240.56 133.51 223.22 116.18 212.77 126.64 230.1 143.97 212.77 161.3 223.22 171.76 240.56 154.43 257.89 171.76 268.35 161.3 251.01 143.97 268.35 126.64 257.89 116.18"/>
    <g>
      <g>
        <polygon class="cls-13" points="52.77 338.75 52.77 327.34 31.75 327.34 31.75 358.72 79.2 359.48 79.2 353.78 52.77 338.75"/>
        <path class="cls-25" d="m80.88,359.48v-2.71c0-2.77-1.52-5.31-3.95-6.62l-20.01-10.8c-6,1.64-10.63,1.41-13.8.87-5.26-.89-10.29-3.28-11.98-1.28-.48.57-.54,1.32-.52,1.84v16.59c0,1.16.94,2.11,2.11,2.11h48.16Z"/>
        <line class="cls-4" x1="80.88" y1="357.67" x2="30.61" y2="357.67"/>
        <line class="cls-4" x1="69.8" y1="346.54" x2="66.99" y2="350.26"/>
        <line class="cls-4" x1="67.74" y1="345.37" x2="64.92" y2="349.09"/>
        <line class="cls-4" x1="65.58" y1="344.29" x2="62.77" y2="348.01"/>
        <path class="cls-4" d="m62.41,342.32c-3.41,1.3-9.04,2.97-16.14,2.93-6.85-.04-12.3-1.65-15.66-2.93"/>
      </g>
      <g>
        <polygon class="cls-13" points="112.67 338.75 112.67 327.34 91.66 327.34 91.66 358.72 139.1 359.48 139.1 353.78 112.67 338.75"/>
        <path class="cls-25" d="m140.78,359.48v-2.71c0-2.77-1.52-5.31-3.95-6.62l-20.01-10.8c-6,1.64-10.63,1.41-13.8.87-5.26-.89-10.29-3.28-11.98-1.28-.48.57-.54,1.32-.52,1.84v16.59c0,1.16.94,2.11,2.11,2.11h48.16Z"/>
        <line class="cls-4" x1="140.78" y1="357.67" x2="90.52" y2="357.67"/>
        <line class="cls-4" x1="129.71" y1="346.54" x2="126.89" y2="350.26"/>
        <line class="cls-4" x1="127.65" y1="345.37" x2="124.83" y2="349.09"/>
        <line class="cls-4" x1="125.49" y1="344.29" x2="122.67" y2="348.01"/>
        <path class="cls-4" d="m122.32,342.32c-3.41,1.3-9.04,2.97-16.14,2.93-6.85-.04-12.3-1.65-15.66-2.93"/>
      </g>
      <path class="cls-15" d="m100.59,176.25s17.31,54.96,19.97,62.57,5.13,18.26,4.56,27.58c-.57,9.32-9.51,66.75-9.51,66.75h-26.05s-1.84-60.67-2.73-65.42c-.89-4.75-8.49-31.65-8.49-31.65,0,0-2.47,31.46-4.56,39.82-2.09,8.37-18.83,58.19-18.83,58.19h-24.34l10.27-157.85h59.71Z"/>
      <g>
        <path class="cls-13" d="m140.31,142.74s8.26-7.01,10.35-11.6c1.79-3.92,4.29-10.82,4.98-12.73.1-.29.4-.45.7-.38l.5.12c1.53.36,2.48,1.9,2.11,3.44l-.83,3.44,8.73-5.73c.75-.49,1.76-.25,2.2.53.39.69.2,1.56-.43,2.02l-5.76,4.2,9.57-4.49c.74-.35,1.62-.07,2.03.64v.02c.44.75.18,1.71-.57,2.14l.11-.03c.83-.24,1.71.16,2.07.95.42.91,0,1.98-.93,2.36l-.61.25c.79-.25,1.63.25,1.79,1.06h0c.24,1.19-.34,2.39-1.41,2.95-2.57,1.34-4.25,1.69-6.69,3.52-1.94,1.45-1.26,2.37-3.32,5.02-2.52,3.22-4.66,3.31-8.99,6.5-1.65,1.21-3.92,3.1-6.32,5.9l-9.26-10.1Z"/>
        <path class="cls-9" d="m169.2,120.17s.44.89-.39,1.52c-.83.63-7.34,5.45-7.34,5.45"/>
        <line class="cls-9" x1="173.89" y1="124.36" x2="164.93" y2="128.52"/>
        <line class="cls-9" x1="174.81" y1="127.83" x2="165.81" y2="131.98"/>
        <path class="cls-9" d="m157.47,118.39s1.57,1,1.53,2.1c-.04,1.1-1.63,8.2-1.63,8.2"/>
      </g>
      <path class="cls-18" d="m89.56,333.14s-2.36-62.2-2.54-63.81c-.18-1.61-9.05-34.53-9.05-34.53l1.57-14.55s17.89,44.03,17.89,46.93,1.99,65.97,1.99,65.97h-9.85Z"/>
      <line class="cls-9" x1="74.79" y1="272.09" x2="81.15" y2="203.35"/>
      <polygon class="cls-14" points="116.62 327.86 89.36 327.86 89.56 333.14 115.62 333.14 116.62 327.86"/>
      <polygon class="cls-14" points="56.53 329.38 30.92 329.38 30.61 334.09 54.95 334.09 56.53 329.38"/>
      <path class="cls-8" d="m118.21,244.25c3.45,10.86,4,22.62,1.57,33.75"/>
      <path class="cls-16" d="m147.18,135.35s-4.41,3.4-9.44,4.28c-5.89,1.03-11-2.45-12.37-3.39-3.73-2.55-5.11-5.57-7.58-9.11-7.31-10.47-11.86-16.97-18.22-20.66-3.29-1.9-8.78-4.05-17.45-3.39-1.94-.7-5.04-.14-7.12-.14h-5.18c-3.4.41-28.46,3.32-32.72-.59-1.68-1.54-1.71-3.06-1.71-3.06-.02-1.26.77-2.56,2.85-4.14,5.07-3.86,14.38-6.75,17.5-7.67l-1.9-14.2h-4.18c-4.18,0-19.02,2.47-27,5.26-11.2,3.91-17.2,6.77-20.16,13.26-3.71,8.13.24,16.87,1.27,19.14,5.14,11.37,16.54,15.98,23.43,18.76,6.07,2.45,11.48,3.44,15.24,3.87l-3.23,51.73,59.46,3.23h8.93c.68-7.9-2.74-32.46-2.29-40.48,7.59,10.56,20.17,15.9,32.1,13.61,13.21-2.54,19.86-13.32,20.94-15.13-4.61-9.1-11.16-11.16-11.16-11.16Z"/>
      <path class="cls-24" d="m72.74,106.92h3.75v21.52c0,1.75-1.42,3.17-3.17,3.17h-.57v-24.69h0Z"/>
      <path class="cls-17" d="m107.68,185.8c-2.05.38-30.19,5.1-50.08-15.9-16.78-17.72-14.8-40.14-14.45-43.45-1.04,15.55-2.09,31.1-3.13,46.66h-.06l-.76,12.19,9.32.51v-.07c13.89,1.1,28.24,1.92,43.01,2.41,5.41.18,10.76.31,16.06.39.03-.91.06-1.82.09-2.73Z"/>
      <g>
        <path class="cls-14" d="m91.92,84.26c1.02-5.23.86-9.32.56-11.93-.22-1.99-.57-3.49-1.63-4.92-.22-.3-1.98-2.61-4.99-3.21-3.6-.72-4.51,1.89-9.63,2.53-4.42.55-5.29-1.21-8.26.05-3.24,1.38-4.85,4.59-5.33,5.56-.21.43-1.27,2.6-1.38,5.66-.08,2.42.47,4.24.69,4.98.92,3.13,2,7.89,3.33,15.51.69-.03,1.38-.05,2.07-.08,8.18-4.71,16.37-9.43,24.56-14.14Z"/>
        <path class="cls-13" d="m74.41,109.98h0c-3.87.01-7.01-3.11-7.03-6.98l-.06-15.07,14.01-.05.06,15.07c.01,3.87-3.11,7.01-6.98,7.03Z"/>
        <path class="cls-23" d="m81.37,98.73l-9.12-4.69c.09.79.61,4.49,3.86,7.04,2.08,1.63,4.26,2,5.27,2.11v-4.47Z"/>
        <path class="cls-13" d="m66.98,83.26c-.04-.23-.64-.57-.83-.69-.31-.2-.65-.36-1-.47-.68-.22-1.43-.27-2.14-.11-1.4.32-2.63,1.49-2.87,2.93-.14.83.06,1.7.42,2.46.54,1.15,1.45,2.12,2.55,2.75.91.53,1.95.82,3,.89.21.01,2.36-.04,2.35-.12-.49-2.55-.99-5.1-1.48-7.64Z"/>
        <path class="cls-13" d="m65.06,83.41c.17,1.12,1.15,7.05,6.5,11.25.98.77,7.53,5.9,13.52,3.4,7.7-3.22,6.86-15.86,6.8-16.54-.18-2.31-.72-9.13-6.37-12.77-4.61-2.97-9.6-1.88-10.31-1.71-.75.18-5.5,1.37-8.41,6.03-2.64,4.23-2.01,8.5-1.74,10.34Z"/>
        <path class="cls-14" d="m87.52,81.52c.12.99.89,1.7,1.7,1.6.81-.1,1.37-.99,1.25-1.97-.12-.99-.88-1.7-1.7-1.6-.81.1-1.37.99-1.25,1.97Z"/>
        <path class="cls-14" d="m78.62,82.63c.12.99.88,1.7,1.7,1.6.81-.1,1.37-.99,1.25-1.97-.12-.99-.88-1.7-1.7-1.6-.81.1-1.37.99-1.25,1.97Z"/>
        <path class="cls-5" d="m84.83,82.99l1.36,1.84c.25.34.16.82-.2,1.04l-1.25.76"/>
        <path class="cls-23" d="m75.64,87.28c.14,1.11,1.15,1.89,2.26,1.75,1.11-.14,1.89-1.15,1.75-2.26-.14-1.11-1.15-1.89-2.26-1.75-1.11.14-1.89,1.15-1.75,2.26Z"/>
        <path class="cls-5" d="m66.04,88.33c0-.22.03-1.73-1.18-2.81-.95-.85-2.05-.91-2.34-.91"/>
        <path class="cls-5" d="m64.98,85.81c-.07-.01-.88-.12-1.44.49-.46.5-.42,1.12-.41,1.23"/>
        <path class="cls-14" d="m64.88,82.03s1,.09,1.75.83c.75.74,1.02,2.02,1.02,2.02,1.92-.23,6.31-1.04,10.29-4.5,2.16-1.87,3.48-3.9,4.25-5.36.73.65,1.97,1.63,3.72,2.39,2.29.99,5.14,1.46,5.52.69.07-.14,0-.55-.16-1.38-.06-.3-.12-.74-.26-1.16-.28-.83-.65-1.62-1.09-2.38-.88-1.51-2.05-2.85-3.43-3.93-.9-.7-1.88-1.28-2.92-1.73-3.32-1.41-7.93-1.41-11.9.7,0,0-4.43,2.36-6.38,6.99-.67,1.59-.84,3.18-.88,3.73-.08,1.09.04,1.8.21,2.35.09.31.2.56.28.73Z"/>
        <path class="cls-23" d="m90.84,84.09c.38-.05.75.02,1.08.17-.04,1.09-.14,2.4-.38,3.8-.06.01-.13.04-.19.04-1.11.14-2.12-.65-2.26-1.75s.65-2.12,1.75-2.26Z"/>
        <path class="cls-7" d="m76.01,67.29c-.66-.26-1.62-.61-2.81-.95-2.6-.75-3.9-1.12-5.09-.97-3.47.45-5.46,5.01-6.29,6.93-.63,1.45-1.67,3.91-1.12,6.99.24,1.37.73,2.45,1.11,3.15"/>
        <path class="cls-7" d="m76.01,66.87c1.17-.51,2.43-.93,3.55-1.51,1.19-.62,2.22-1.42,3.49-1.89,1.33-.5,2.82-.7,4.18-.28,1.17.36,2.18,1.14,3,2.04,1.11,1.22,1.96,2.69,2.41,4.28.85,3.07.09,6.26-.41,9.32"/>
        <path class="cls-24" d="m86.33,90.86c0,1-.97,1.8-2.17,1.8s-2.17-.81-2.17-1.8.97-1.8,2.17-1.8,2.17.81,2.17,1.8Z"/>
      </g>
      <path class="cls-13" d="m54.18,75.71l4-2.44s.82-3.52,1.93-4.27c1.11-.75,7.02-3.04,7.02-3.04l.86.8s-4.62,4.22-5.58,6.09c-.96,1.87-1.14,7.09-1.14,7.09l-4.52,5.84-1.11.84-1.46-10.92Z"/>
      <line class="cls-9" x1="43.16" y1="128.69" x2="41.05" y2="155.72"/>
      <line class="cls-9" x1="104.27" y1="130.9" x2="105.88" y2="160.72"/>
      <path class="cls-8" d="m11.9,88.33c-.84.67-5.16,4.24-5.86,10.56-.76,6.88,3.38,11.6,4.03,12.31"/>
      <path class="cls-8" d="m114.62,150.02c1.11,1.24,5.44,5.74,12.7,6.72,6.89.93,12.03-1.9,13.51-2.79"/>
    </g>
    <g>
      <path class="cls-26" d="m303.55,173.71l9.27-4.96,13.76,2.52,6.88-7.34,16.28,4.36,9.06-12.38,16.17,9.91-5.5-34.96-21.34-14.94-49.05,7.72c-1.84.29-3.09,2.01-2.8,3.85l7.27,46.22Z"/>
      <path class="cls-19" d="m353.11,133.43l16.36-2.57-21.34-14.94,2.47,15.69c.19,1.2,1.32,2.02,2.52,1.83Z"/>
      <path class="cls-3" d="m348.13,115.92l2.47,15.69c.19,1.2,1.32,2.02,2.52,1.83l16.36-2.57"/>
      <path class="cls-26" d="m310.16,219.61c.29,1.84,2.01,3.09,3.85,2.8l64.26-10.11c1.84-.29,3.09-2.01,2.8-3.85l-6.1-38.73-16.17-9.91-9.06,12.38-16.28-4.36-6.88,7.34-13.76-2.52-9.27,4.96,6.61,42.01Z"/>
      <path class="cls-3" d="m303.56,173.71l9.27-4.96,13.76,2.52,6.88-7.34,16.28,4.36,9.06-12.38,16.17,9.91-5.5-34.96-21.34-14.94-49.05,7.72c-1.84.29-3.09,2.01-2.8,3.85l7.27,46.22Z"/>
      <path class="cls-3" d="m310.17,219.61c.29,1.84,2.01,3.09,3.85,2.8l64.26-10.11c1.84-.29,3.09-2.01,2.8-3.85l-6.1-38.73-16.17-9.91-9.06,12.38-16.28-4.36-6.88,7.34-13.76-2.52-9.27,4.96,6.61,42.01Z"/>
    </g>
    <polygon class="cls-22" points="54.97 64.96 53.35 66.51 39 53.55 43.13 49.61 54.97 64.96"/>
    <polygon class="cls-22" points="58.51 62.3 56.31 62.71 51.39 44.02 57 42.98 58.51 62.3"/>
    <polygon class="cls-22" points="50.87 68.49 50.68 70.72 31.35 70.58 31.82 64.89 50.87 68.49"/>
    <g>
      <path class="cls-22" d="m281.82,351.92h0c-4.85-4.77-4.92-12.56-.15-17.41l56.69-57.69,17.56,17.26-56.69,57.69c-4.77,4.85-12.56,4.92-17.41.15Z"/>
      <circle class="cls-10" cx="382.85" cy="249.12" r="49.79" transform="translate(-.56 .87) rotate(-.13)"/>
      <path class="cls-12" d="m336.25,266.67c1.68,4.47,4.02,8.74,7.02,12.66l89.35-30.9c-.07-4.83-.84-9.65-2.3-14.3l-94.08,32.54Z"/>
      <path class="cls-12" d="m333.18,252.41c.19,2.82.61,5.63,1.28,8.4l93.67-32.4c-1.17-2.55-2.56-5.03-4.18-7.4l-90.77,31.4Z"/>
      <path class="cls-22" d="m423.13,208.14c-22.63-22.24-59.02-21.93-81.26.71-22.24,22.63-21.93,59.02.71,81.26,22.63,22.24,59.02,21.93,81.26-.71,22.24-22.63,21.93-59.02-.71-81.26Zm-73.45,74.73c-18.64-18.32-18.9-48.28-.58-66.92,18.32-18.64,48.28-18.9,66.92-.58,18.64,18.32,18.9,48.28.58,66.92-18.32,18.64-48.28,18.9-66.92.58Z"/>
      <line class="cls-1" x1="342.34" y1="299.39" x2="297.51" y2="345.01"/>
      <path class="cls-1" d="m386.97,195.79c-14.12-1.42-28.77,3.45-39.22,13.06-10.45,9.61-16.54,23.79-16.31,37.98"/>
    </g>
  </g>
</svg>